<?xml version="1.0" encoding="utf-8" standalone="no"?>
<!DOCTYPE svg PUBLIC "-//W3C//DTD SVG 1.1//EN"
  "http://www.w3.org/Graphics/SVG/1.1/DTD/svg11.dtd">
<!-- Created with matplotlib (http://matplotlib.org/) -->
<svg height="432pt" version="1.1" viewBox="0 0 576 432" width="576pt" xmlns="http://www.w3.org/2000/svg" xmlns:xlink="http://www.w3.org/1999/xlink">
 <defs>
  <style type="text/css">
*{stroke-linecap:butt;stroke-linejoin:round;}
  </style>
 </defs>
 <g id="figure_1">
  <g id="patch_1">
   <path d="
M0 432
L576 432
L576 0
L0 0
z
" style="fill:#ffffff;"/>
  </g>
  <g id="axes_1">
   <g id="patch_2">
    <path clip-path="url(#pe5c76d5a91)" d="
M430.397 277.541
L466.51 269.998
L464.753 326.458
L462.495 326.458
L453.963 325.956
L444.678 322.945
L435.394 319.683
L427.473 319.255
L430.397 277.541" style="fill:#ffffff;stroke:#000000;stroke-linejoin:miter;"/>
   </g>
   <g id="patch_3">
    <path clip-path="url(#pe5c76d5a91)" d="
M468.828 238.93
L466.51 269.998
L430.397 277.541
L411.98 238.768
L468.828 238.93" style="fill:#ffffff;stroke:#000000;stroke-linejoin:miter;"/>
   </g>
   <g id="patch_4">
    <path clip-path="url(#pe5c76d5a91)" d="
M471.178 208.939
L470.274 219.56
L468.828 238.93
L411.98 238.768
L409.557 209.689
L409.358 205.922
L471.178 208.939" style="fill:#ffffff;stroke:#000000;stroke-linejoin:miter;"/>
   </g>
   <g id="patch_5">
    <path clip-path="url(#pe5c76d5a91)" d="
M430.596 167.844
L450.199 87.8185
L490.098 97.8559
L481.566 131.481
L474.289 172.384
L430.596 167.844" style="fill:#ffffff;stroke:#000000;stroke-linejoin:miter;"/>
   </g>
   <g id="patch_6">
    <path clip-path="url(#pe5c76d5a91)" d="
M429.868 77.232
L421.791 124.023
L397.44 121.967
L403.338 64.1529
L407.791 65.7361
L429.868 77.232" style="fill:#ffffff;stroke:#000000;stroke-linejoin:miter;"/>
   </g>
   <g id="patch_7">
    <path clip-path="url(#pe5c76d5a91)" d="
M397.44 121.967
L421.791 124.023
L429.868 77.232
L450.199 87.8185
L430.596 167.844
L404.381 165.121
L397.44 121.967" style="fill:#ffffff;stroke:#000000;stroke-linejoin:miter;"/>
   </g>
   <g id="patch_8">
    <path clip-path="url(#pe5c76d5a91)" d="
M430.596 167.844
L441.94 207.512
L409.358 205.922
L408.587 191.272
L404.381 165.121
L430.596 167.844" style="fill:#ffffff;stroke:#000000;stroke-linejoin:miter;"/>
   </g>
   <g id="patch_9">
    <path clip-path="url(#pe5c76d5a91)" d="
M441.94 207.512
L430.596 167.844
L474.289 172.384
L471.178 208.939
L441.94 207.512" style="fill:#ffffff;stroke:#000000;stroke-linejoin:miter;"/>
   </g>
   <g id="patch_10">
    <path clip-path="url(#pe5c76d5a91)" d="
M409.194 202.807
L326.892 196.243
L310.302 181.259
L319.157 161.268
L403.435 159.239
L408.587 191.272
L409.194 202.807" style="fill:#ffffff;stroke:#000000;stroke-linejoin:miter;"/>
   </g>
   <g id="patch_11">
    <path clip-path="url(#pe5c76d5a91)" d="
M357.187 337.109
L354.091 338.001
L335.02 342.267
L321.183 344.56
L314.717 303.845
L309.337 287.745
L343.11 285.459
L357.187 337.109" style="fill:#ffffff;stroke:#000000;stroke-linejoin:miter;"/>
   </g>
   <g id="patch_12">
    <path clip-path="url(#pe5c76d5a91)" d="
M136.78 173.638
L135.526 149.549
L155.35 147.792
L174.421 142.021
L184.207 138.257
L190.982 136.751
L194.44 136.52
L198.042 167.33
L136.78 173.638" style="fill:#ffffff;stroke:#000000;stroke-linejoin:miter;"/>
   </g>
   <g id="patch_13">
    <path clip-path="url(#pe5c76d5a91)" d="
M228.428 139.234
L231.23 164.792
L266.258 240.432
L142.361 270.98
L141.799 251.68
L140.293 224.328
L138.788 200.489
L136.78 173.638
L198.042 167.33
L194.44 136.52
L198.51 136.249
L209.301 137.253
L218.836 138.507
L228.428 139.234" style="fill:#ffffff;stroke:#000000;stroke-linejoin:miter;"/>
   </g>
   <g id="patch_14">
    <path clip-path="url(#pe5c76d5a91)" d="
M209.362 340.582
L212.233 253.752
L238.528 247.269
L243.679 283.548
L241.922 286.56
L245.937 308.893
L238.911 341.765
L221.597 340.762
L209.362 340.582" style="fill:#ffffff;stroke:#000000;stroke-linejoin:miter;"/>
   </g>
   <g id="patch_15">
    <path clip-path="url(#pe5c76d5a91)" d="
M178.262 349.169
L179.961 261.709
L212.233 253.752
L209.362 340.582
L204.533 340.511
L196.252 342.518
L178.262 349.169" style="fill:#ffffff;stroke:#000000;stroke-linejoin:miter;"/>
   </g>
   <g id="patch_16">
    <path clip-path="url(#pe5c76d5a91)" d="
M138.589 318.152
L178.934 314.597
L178.262 349.169
L154.848 357.825
L134.773 357.574
L137.282 330.473
L138.589 318.152" style="fill:#ffffff;stroke:#000000;stroke-linejoin:miter;"/>
   </g>
   <g id="patch_17">
    <path clip-path="url(#pe5c76d5a91)" d="
M178.934 314.597
L138.589 318.152
L139.039 313.912
L141.799 297.852
L142.552 277.526
L142.361 270.98
L179.961 261.709
L178.934 314.597" style="fill:#ffffff;stroke:#000000;stroke-linejoin:miter;"/>
   </g>
   <g id="patch_18">
    <path clip-path="url(#pe5c76d5a91)" d="
M368.689 116.86
L379.435 59.9646
L396.499 61.7212
L403.338 64.1529
L397.44 121.967
L368.689 116.86" style="fill:#ffffff;stroke:#000000;stroke-linejoin:miter;"/>
   </g>
   <g id="patch_19">
    <path clip-path="url(#pe5c76d5a91)" d="
M379.435 59.9646
L368.689 116.86
L336.796 111.196
L340.54 99.1106
L340.791 90.3278
L349.574 59.7137
L358.858 60.4665
L369.649 60.2155
L379.435 59.9646" style="fill:#ffffff;stroke:#000000;stroke-linejoin:miter;"/>
   </g>
   <g id="patch_20">
    <path clip-path="url(#pe5c76d5a91)" d="
M429.684 287.717
L427.473 319.255
L426.109 319.181
L414.315 320.185
L402.27 322.443
L387.967 326.709
L384.454 319.934
L379.937 312.908
L378.18 303.121
L376.424 286.811
L429.684 287.717" style="fill:#ffffff;stroke:#000000;stroke-linejoin:miter;"/>
   </g>
   <g id="patch_21">
    <path clip-path="url(#pe5c76d5a91)" d="
M424.748 265.649
L430.397 277.541
L429.684 287.717
L376.424 286.811
L374.918 276.522
L373.413 267.488
L371.211 259.866
L424.748 265.649" style="fill:#ffffff;stroke:#000000;stroke-linejoin:miter;"/>
   </g>
   <g id="patch_22">
    <path clip-path="url(#pe5c76d5a91)" d="
M411.98 238.768
L424.748 265.649
L371.211 259.866
L370.151 256.196
L365.132 249.923
L360.615 245.657
L357.604 237.878
L411.98 238.768" style="fill:#ffffff;stroke:#000000;stroke-linejoin:miter;"/>
   </g>
   <g id="patch_23">
    <path clip-path="url(#pe5c76d5a91)" d="
M299.638 259.459
L285.585 261.215
L266.765 269.747
L265.008 274.013
L243.679 283.548
L238.528 247.269
L266.258 240.432
L291.492 237.216
L299.638 259.459" style="fill:#ffffff;stroke:#000000;stroke-linejoin:miter;"/>
   </g>
   <g id="patch_24">
    <path clip-path="url(#pe5c76d5a91)" d="
M310.302 181.259
L236.4 175.957
L231.23 164.792
L228.428 139.234
L235.398 139.762
L240.417 138.758
L248.447 137.253
L252.713 135.998
L262.75 135.245
L268.522 135.496
L275.297 135.998
L281.068 136.751
L289.098 139.26
L299.889 142.773
L319.963 146.036
L326.237 145.283
L310.302 181.259" style="fill:#ffffff;stroke:#000000;stroke-linejoin:miter;"/>
   </g>
   <g id="patch_25">
    <path clip-path="url(#pe5c76d5a91)" d="
M360.364 252.432
L297.122 252.588
L291.492 237.216
L304.056 236.074
L325.822 212.833
L334.384 205.34
L357.102 228.092
L352.083 228.092
L354.593 244.151
L360.364 252.432" style="fill:#ffffff;stroke:#000000;stroke-linejoin:miter;"/>
   </g>
   <g id="patch_26">
    <path clip-path="url(#pe5c76d5a91)" d="
M249.2 321.189
L316.573 315.535
L321.183 344.56
L291.106 349.544
L278.81 350.799
L270.529 350.297
L261.746 350.297
L254.971 348.792
L249.952 347.788
L245.185 344.275
L244.683 338.503
L249.2 321.189" style="fill:#ffffff;stroke:#000000;stroke-linejoin:miter;"/>
   </g>
   <g id="patch_27">
    <path clip-path="url(#pe5c76d5a91)" d="
M287.718 317.956
L282.709 267.105
L288.596 264.979
L301.143 263.223
L314.717 303.845
L316.573 315.535
L287.718 317.956" style="fill:#ffffff;stroke:#000000;stroke-linejoin:miter;"/>
   </g>
   <g id="patch_28">
    <path clip-path="url(#pe5c76d5a91)" d="
M287.718 317.956
L249.2 321.189
L251.207 308.642
L246.941 286.309
L268.772 274.766
L273.289 269.496
L279.563 268.241
L282.709 267.105
L287.718 317.956" style="fill:#ffffff;stroke:#000000;stroke-linejoin:miter;"/>
   </g>
   <g id="patch_29">
    <path clip-path="url(#pe5c76d5a91)" d="
M371.538 283.535
L309.337 287.745
L301.143 263.223
L299.638 259.459
L297.122 252.588
L360.364 252.432
L367.39 262.972
L370.151 274.515
L371.538 283.535" style="fill:#ffffff;stroke:#000000;stroke-linejoin:miter;"/>
   </g>
   <g id="patch_30">
    <path clip-path="url(#pe5c76d5a91)" d="
M357.187 337.109
L343.11 285.459
L371.538 283.535
L373.162 294.088
L375.671 311.653
L383.701 329.47
L357.187 337.109" style="fill:#ffffff;stroke:#000000;stroke-linejoin:miter;"/>
   </g>
   <g id="patch_31">
    <path clip-path="url(#pe5c76d5a91)" d="
M403.435 159.239
L319.157 161.268
L326.237 145.283
L336.796 111.196
L397.44 121.967
L403.435 159.239" style="fill:#ffffff;stroke:#000000;stroke-linejoin:miter;"/>
   </g>
   <g id="patch_32">
    <path clip-path="url(#pe5c76d5a91)" d="
M409.194 202.807
L409.557 209.689
L411.98 238.768
L357.604 237.878
L357.102 228.092
L334.384 205.34
L325.822 212.833
L320.47 206.411
L326.892 196.243
L409.194 202.807" style="fill:#ffffff;stroke:#000000;stroke-linejoin:miter;"/>
   </g>
   <g id="patch_33">
    <path clip-path="url(#pe5c76d5a91)" d="
M309.469 230.295
L290.56 179.842
L310.302 181.259
L326.892 196.243
L320.47 206.411
L325.822 212.833
L309.469 230.295" style="fill:#ffffff;stroke:#000000;stroke-linejoin:miter;"/>
   </g>
   <g id="patch_34">
    <path clip-path="url(#pe5c76d5a91)" d="
M290.56 179.842
L309.469 230.295
L304.056 236.074
L291.492 237.216
L266.258 240.432
L236.4 175.957
L290.56 179.842" style="fill:#ffffff;stroke:#000000;stroke-linejoin:miter;"/>
   </g>
  </g>
 </g>
 <defs>
  <clipPath id="pe5c76d5a91">
   <rect height="321.408" width="446.4" x="72.0" y="55.296"/>
  </clipPath>
 </defs>
</svg>
