<?xml version="1.0" encoding="utf-8" standalone="no"?>
<!DOCTYPE svg PUBLIC "-//W3C//DTD SVG 1.1//EN"
  "http://www.w3.org/Graphics/SVG/1.1/DTD/svg11.dtd">
<!-- Created with matplotlib (http://matplotlib.org/) -->
<svg height="381pt" version="1.1" viewBox="0 0 466 381" width="466pt" xmlns="http://www.w3.org/2000/svg" xmlns:xlink="http://www.w3.org/1999/xlink">
 <defs>
  <style type="text/css">
*{stroke-linecap:butt;stroke-linejoin:round;}
  </style>
 </defs>
 <g id="figure_1">
  <g id="patch_1">
   <path d="
M0 381.421
L466.992 381.421
L466.992 0
L0 0
z
" style="fill:#ffffff;"/>
  </g>
  <g id="axes_1">
   <g id="LineCollection_1">
    <path clip-path="url(#pdb9fa31e48)" d="
M275.769 273.449
L296.296 267.534" style="fill:none;stroke:#444444;"/>
    <path clip-path="url(#pdb9fa31e48)" d="
M275.769 273.449
L264.871 233.461" style="fill:none;stroke:#444444;"/>
    <path clip-path="url(#pdb9fa31e48)" d="
M275.769 273.449
L273.372 274.139" style="fill:none;stroke:#444444;"/>
    <path clip-path="url(#pdb9fa31e48)" d="
M220.336 214.692
L205.765 221.297" style="fill:none;stroke:#444444;"/>
    <path clip-path="url(#pdb9fa31e48)" d="
M220.336 214.692
L231.215 213.332" style="fill:none;stroke:#444444;"/>
    <path clip-path="url(#pdb9fa31e48)" d="
M306.933 106.886
L325.785 108.479" style="fill:none;stroke:#444444;"/>
    <path clip-path="url(#pdb9fa31e48)" d="
M306.933 106.886
L284.674 102.933" style="fill:none;stroke:#444444;"/>
    <path clip-path="url(#pdb9fa31e48)" d="
M306.933 106.886
L311.574 135.743" style="fill:none;stroke:#444444;"/>
    <path clip-path="url(#pdb9fa31e48)" d="
M306.933 106.886
L311.499 62.1276" style="fill:none;stroke:#444444;"/>
    <path clip-path="url(#pdb9fa31e48)" d="
M289.497 226.542
L288.331 219.549" style="fill:none;stroke:#444444;"/>
    <path clip-path="url(#pdb9fa31e48)" d="
M289.497 226.542
L290.662 234.508" style="fill:none;stroke:#444444;"/>
    <path clip-path="url(#pdb9fa31e48)" d="
M157.585 276.082
L161.324 276.137" style="fill:none;stroke:#444444;"/>
    <path clip-path="url(#pdb9fa31e48)" d="
M157.585 276.082
L151.174 277.636" style="fill:none;stroke:#444444;"/>
    <path clip-path="url(#pdb9fa31e48)" d="
M264.871 233.461
L286.88 231.972" style="fill:none;stroke:#444444;"/>
    <path clip-path="url(#pdb9fa31e48)" d="
M264.871 233.461
L238.724 235.231" style="fill:none;stroke:#444444;"/>
    <path clip-path="url(#pdb9fa31e48)" d="
M299.599 265.397
L310.672 262.094" style="fill:none;stroke:#444444;"/>
    <path clip-path="url(#pdb9fa31e48)" d="
M299.599 265.397
L296.879 260.152" style="fill:none;stroke:#444444;"/>
    <path clip-path="url(#pdb9fa31e48)" d="
M360.406 221.491
L362.201 197.439" style="fill:none;stroke:#444444;"/>
    <path clip-path="url(#pdb9fa31e48)" d="
M360.406 221.491
L332.448 227.331" style="fill:none;stroke:#444444;"/>
    <path clip-path="url(#pdb9fa31e48)" d="
M360.406 221.491
L359.046 265.203" style="fill:none;stroke:#444444;"/>
    <path clip-path="url(#pdb9fa31e48)" d="
M224.187 151.693
L238.826 190.754" style="fill:none;stroke:#444444;"/>
    <path clip-path="url(#pdb9fa31e48)" d="
M224.187 151.693
L239.471 152.79" style="fill:none;stroke:#444444;"/>
    <path clip-path="url(#pdb9fa31e48)" d="
M224.187 151.693
L182.257 148.685" style="fill:none;stroke:#444444;"/>
    <path clip-path="url(#pdb9fa31e48)" d="
M366.429 145.919
L372.063 114.253" style="fill:none;stroke:#444444;"/>
    <path clip-path="url(#pdb9fa31e48)" d="
M366.429 145.919
L364.02 174.22" style="fill:none;stroke:#444444;"/>
    <path clip-path="url(#pdb9fa31e48)" d="
M366.429 145.919
L332.602 142.405" style="fill:none;stroke:#444444;"/>
    <path clip-path="url(#pdb9fa31e48)" d="
M318.19 197.314
L276.092 196.624" style="fill:none;stroke:#444444;"/>
    <path clip-path="url(#pdb9fa31e48)" d="
M318.19 197.314
L316.313 174.801" style="fill:none;stroke:#444444;"/>
    <path clip-path="url(#pdb9fa31e48)" d="
M318.19 197.314
L328.074 218.124" style="fill:none;stroke:#444444;"/>
    <path clip-path="url(#pdb9fa31e48)" d="
M318.19 197.314
L362.201 197.439" style="fill:none;stroke:#444444;"/>
    <path clip-path="url(#pdb9fa31e48)" d="
M234.636 195.228
L238.826 190.754" style="fill:none;stroke:#444444;"/>
    <path clip-path="url(#pdb9fa31e48)" d="
M234.636 195.228
L224.908 196.112" style="fill:none;stroke:#444444;"/>
    <path clip-path="url(#pdb9fa31e48)" d="
M196.634 282.493
L201.88 283.659" style="fill:none;stroke:#444444;"/>
    <path clip-path="url(#pdb9fa31e48)" d="
M196.634 282.493
L192.749 281.716" style="fill:none;stroke:#444444;"/>
    <path clip-path="url(#pdb9fa31e48)" d="
M193.72 251.409
L190.418 234.119" style="fill:none;stroke:#444444;"/>
    <path clip-path="url(#pdb9fa31e48)" d="
M193.72 251.409
L192.166 261.123" style="fill:none;stroke:#444444;"/>
    <path clip-path="url(#pdb9fa31e48)" d="
M330.184 259.626
L331.896 235.21" style="fill:none;stroke:#444444;"/>
    <path clip-path="url(#pdb9fa31e48)" d="
M330.184 259.626
L329.128 259.569" style="fill:none;stroke:#444444;"/>
    <path clip-path="url(#pdb9fa31e48)" d="
M330.184 259.626
L336.316 259.957" style="fill:none;stroke:#444444;"/>
    <path clip-path="url(#pdb9fa31e48)" d="
M202.657 117.167
L207.125 117.361" style="fill:none;stroke:#444444;"/>
    <path clip-path="url(#pdb9fa31e48)" d="
M202.657 117.167
L194.886 117.75" style="fill:none;stroke:#444444;"/>
    <path clip-path="url(#pdb9fa31e48)" d="
M350.693 264.814
L343.504 262.483" style="fill:none;stroke:#444444;"/>
    <path clip-path="url(#pdb9fa31e48)" d="
M350.693 264.814
L357.298 265.203" style="fill:none;stroke:#444444;"/>
    <path clip-path="url(#pdb9fa31e48)" d="
M189.058 278.996
L188.669 274.528" style="fill:none;stroke:#444444;"/>
    <path clip-path="url(#pdb9fa31e48)" d="
M189.058 278.996
L192.749 281.716" style="fill:none;stroke:#444444;"/>
    <path clip-path="url(#pdb9fa31e48)" d="
M258.607 277.442
L247.895 279.217" style="fill:none;stroke:#444444;"/>
    <path clip-path="url(#pdb9fa31e48)" d="
M258.607 277.442
L273.372 274.139" style="fill:none;stroke:#444444;"/>
    <path clip-path="url(#pdb9fa31e48)" d="
M328.074 218.124
L332.448 227.331" style="fill:none;stroke:#444444;"/>
    <path clip-path="url(#pdb9fa31e48)" d="
M328.074 218.124
L286.626 213.648" style="fill:none;stroke:#444444;"/>
    <path clip-path="url(#pdb9fa31e48)" d="
M210.816 221.103
L215.673 220.131" style="fill:none;stroke:#444444;"/>
    <path clip-path="url(#pdb9fa31e48)" d="
M210.816 221.103
L207.319 225.182" style="fill:none;stroke:#444444;"/>
    <path clip-path="url(#pdb9fa31e48)" d="
M186.532 234.313
L189.64 251.604" style="fill:none;stroke:#444444;"/>
    <path clip-path="url(#pdb9fa31e48)" d="
M186.532 234.313
L187.892 231.982" style="fill:none;stroke:#444444;"/>
    <path clip-path="url(#pdb9fa31e48)" d="
M242.889 247.696
L238.724 235.231" style="fill:none;stroke:#444444;"/>
    <path clip-path="url(#pdb9fa31e48)" d="
M242.889 247.696
L244.326 256.746" style="fill:none;stroke:#444444;"/>
    <path clip-path="url(#pdb9fa31e48)" d="
M296.296 267.534
L290.079 253.741" style="fill:none;stroke:#444444;"/>
    <path clip-path="url(#pdb9fa31e48)" d="
M105.52 268.311
L103.578 289.293" style="fill:none;stroke:#444444;"/>
    <path clip-path="url(#pdb9fa31e48)" d="
M105.52 268.311
L106.532 258.772" style="fill:none;stroke:#444444;"/>
    <path clip-path="url(#pdb9fa31e48)" d="
M106.686 167.678
L107.851 186.134" style="fill:none;stroke:#444444;"/>
    <path clip-path="url(#pdb9fa31e48)" d="
M106.686 167.678
L105.132 146.891" style="fill:none;stroke:#444444;"/>
    <path clip-path="url(#pdb9fa31e48)" d="
M285.805 210.806
L286.626 213.648" style="fill:none;stroke:#444444;"/>
    <path clip-path="url(#pdb9fa31e48)" d="
M285.805 210.806
L281.92 205.95" style="fill:none;stroke:#444444;"/>
    <path clip-path="url(#pdb9fa31e48)" d="
M215.673 220.131
L218.109 219.252" style="fill:none;stroke:#444444;"/>
    <path clip-path="url(#pdb9fa31e48)" d="
M247.895 279.217
L224.61 283.076" style="fill:none;stroke:#444444;"/>
    <path clip-path="url(#pdb9fa31e48)" d="
M247.895 279.217
L244.326 256.746" style="fill:none;stroke:#444444;"/>
    <path clip-path="url(#pdb9fa31e48)" d="
M192.166 261.123
L188.669 274.528" style="fill:none;stroke:#444444;"/>
    <path clip-path="url(#pdb9fa31e48)" d="
M192.166 261.123
L221.987 258.62" style="fill:none;stroke:#444444;"/>
    <path clip-path="url(#pdb9fa31e48)" d="
M238.724 235.231
L232.38 216.246" style="fill:none;stroke:#444444;"/>
    <path clip-path="url(#pdb9fa31e48)" d="
M184.201 277.053
L189.64 251.604" style="fill:none;stroke:#444444;"/>
    <path clip-path="url(#pdb9fa31e48)" d="
M184.201 277.053
L170.796 276.276" style="fill:none;stroke:#444444;"/>
    <path clip-path="url(#pdb9fa31e48)" d="
M378.668 88.2202
L347.778 80.4493" style="fill:none;stroke:#444444;"/>
    <path clip-path="url(#pdb9fa31e48)" d="
M378.668 88.2202
L372.063 114.253" style="fill:none;stroke:#444444;"/>
    <path clip-path="url(#pdb9fa31e48)" d="
M251.486 177.234
L238.826 190.754" style="fill:none;stroke:#444444;"/>
    <path clip-path="url(#pdb9fa31e48)" d="
M251.486 177.234
L258.115 171.434" style="fill:none;stroke:#444444;"/>
    <path clip-path="url(#pdb9fa31e48)" d="
M251.486 177.234
L247.343 172.263" style="fill:none;stroke:#444444;"/>
    <path clip-path="url(#pdb9fa31e48)" d="
M278.229 207.892
L283.668 216.052" style="fill:none;stroke:#444444;"/>
    <path clip-path="url(#pdb9fa31e48)" d="
M278.229 207.892
L229.267 208.013" style="fill:none;stroke:#444444;"/>
    <path clip-path="url(#pdb9fa31e48)" d="
M278.229 207.892
L273.76 201.481" style="fill:none;stroke:#444444;"/>
    <path clip-path="url(#pdb9fa31e48)" d="
M331.896 235.21
L290.662 234.508" style="fill:none;stroke:#444444;"/>
    <path clip-path="url(#pdb9fa31e48)" d="
M331.896 235.21
L332.448 227.331" style="fill:none;stroke:#444444;"/>
    <path clip-path="url(#pdb9fa31e48)" d="
M314.946 63.3532
L332.038 72.2532" style="fill:none;stroke:#444444;"/>
    <path clip-path="url(#pdb9fa31e48)" d="
M314.946 63.3532
L311.499 62.1276" style="fill:none;stroke:#444444;"/>
    <path clip-path="url(#pdb9fa31e48)" d="
M141.849 119.498
L134.273 122.412" style="fill:none;stroke:#444444;"/>
    <path clip-path="url(#pdb9fa31e48)" d="
M141.849 119.498
L147.095 118.332" style="fill:none;stroke:#444444;"/>
    <path clip-path="url(#pdb9fa31e48)" d="
M329.128 259.569
L319.997 260.346" style="fill:none;stroke:#444444;"/>
    <path clip-path="url(#pdb9fa31e48)" d="
M315.563 160.543
L316.033 169.473" style="fill:none;stroke:#444444;"/>
    <path clip-path="url(#pdb9fa31e48)" d="
M315.563 160.543
L312.307 140.296" style="fill:none;stroke:#444444;"/>
    <path clip-path="url(#pdb9fa31e48)" d="
M252.315 164.391
L316.033 169.473" style="fill:none;stroke:#444444;"/>
    <path clip-path="url(#pdb9fa31e48)" d="
M252.315 164.391
L239.471 152.79" style="fill:none;stroke:#444444;"/>
    <path clip-path="url(#pdb9fa31e48)" d="
M252.315 164.391
L247.343 172.263" style="fill:none;stroke:#444444;"/>
    <path clip-path="url(#pdb9fa31e48)" d="
M215.09 284.047
L224.61 283.076" style="fill:none;stroke:#444444;"/>
    <path clip-path="url(#pdb9fa31e48)" d="
M215.09 284.047
L208.679 283.659" style="fill:none;stroke:#444444;"/>
    <path clip-path="url(#pdb9fa31e48)" d="
M176.085 120.255
L178.254 140.042" style="fill:none;stroke:#444444;"/>
    <path clip-path="url(#pdb9fa31e48)" d="
M176.085 120.255
L181.481 120.664" style="fill:none;stroke:#444444;"/>
    <path clip-path="url(#pdb9fa31e48)" d="
M176.085 120.255
L168.659 119.692" style="fill:none;stroke:#444444;"/>
    <path clip-path="url(#pdb9fa31e48)" d="
M319.997 260.346
L310.672 262.094" style="fill:none;stroke:#444444;"/>
    <path clip-path="url(#pdb9fa31e48)" d="
M109.6 227.32
L109.452 222.252" style="fill:none;stroke:#444444;"/>
    <path clip-path="url(#pdb9fa31e48)" d="
M109.6 227.32
L109.017 243.056" style="fill:none;stroke:#444444;"/>
    <path clip-path="url(#pdb9fa31e48)" d="
M137.247 282.785
L119.119 289.487" style="fill:none;stroke:#444444;"/>
    <path clip-path="url(#pdb9fa31e48)" d="
M137.247 282.785
L151.174 277.636" style="fill:none;stroke:#444444;"/>
    <path clip-path="url(#pdb9fa31e48)" d="
M137.247 282.785
L137.767 256.02" style="fill:none;stroke:#444444;"/>
    <path clip-path="url(#pdb9fa31e48)" d="
M204.405 224.6
L205.765 221.297" style="fill:none;stroke:#444444;"/>
    <path clip-path="url(#pdb9fa31e48)" d="
M204.405 224.6
L187.892 231.982" style="fill:none;stroke:#444444;"/>
    <path clip-path="url(#pdb9fa31e48)" d="
M259.983 98.5479
L262.881 89.1915" style="fill:none;stroke:#444444;"/>
    <path clip-path="url(#pdb9fa31e48)" d="
M259.983 98.5479
L284.674 102.933" style="fill:none;stroke:#444444;"/>
    <path clip-path="url(#pdb9fa31e48)" d="
M259.983 98.5479
L251.808 124.938" style="fill:none;stroke:#444444;"/>
    <path clip-path="url(#pdb9fa31e48)" d="
M288.331 219.549
L286.626 213.648" style="fill:none;stroke:#444444;"/>
    <path clip-path="url(#pdb9fa31e48)" d="
M275.703 189.048
L258.115 171.434" style="fill:none;stroke:#444444;"/>
    <path clip-path="url(#pdb9fa31e48)" d="
M275.703 189.048
L276.092 196.624" style="fill:none;stroke:#444444;"/>
    <path clip-path="url(#pdb9fa31e48)" d="
M275.703 189.048
L271.818 189.048" style="fill:none;stroke:#444444;"/>
    <path clip-path="url(#pdb9fa31e48)" d="
M223.055 120.275
L231.409 122.995" style="fill:none;stroke:#444444;"/>
    <path clip-path="url(#pdb9fa31e48)" d="
M223.055 120.275
L216.839 118.332" style="fill:none;stroke:#444444;"/>
    <path clip-path="url(#pdb9fa31e48)" d="
M205.372 198.601
L183.904 203.895" style="fill:none;stroke:#444444;"/>
    <path clip-path="url(#pdb9fa31e48)" d="
M205.372 198.601
L182.257 148.685" style="fill:none;stroke:#444444;"/>
    <path clip-path="url(#pdb9fa31e48)" d="
M205.372 198.601
L224.908 196.112" style="fill:none;stroke:#444444;"/>
    <path clip-path="url(#pdb9fa31e48)" d="
M281.92 205.95
L278.423 202.647" style="fill:none;stroke:#444444;"/>
    <path clip-path="url(#pdb9fa31e48)" d="
M262.881 89.1915
L263.075 82.392" style="fill:none;stroke:#444444;"/>
    <path clip-path="url(#pdb9fa31e48)" d="
M311.499 62.1276
L306.204 60.2449" style="fill:none;stroke:#444444;"/>
    <path clip-path="url(#pdb9fa31e48)" d="
M207.125 117.361
L212.37 117.75" style="fill:none;stroke:#444444;"/>
    <path clip-path="url(#pdb9fa31e48)" d="
M347.778 80.4493
L332.038 72.2532" style="fill:none;stroke:#444444;"/>
    <path clip-path="url(#pdb9fa31e48)" d="
M347.778 80.4493
L332.602 142.405" style="fill:none;stroke:#444444;"/>
    <path clip-path="url(#pdb9fa31e48)" d="
M107.851 186.134
L109.017 207.309" style="fill:none;stroke:#444444;"/>
    <path clip-path="url(#pdb9fa31e48)" d="
M244.326 256.746
L221.987 258.62" style="fill:none;stroke:#444444;"/>
    <path clip-path="url(#pdb9fa31e48)" d="
M182.257 148.685
L178.254 140.042" style="fill:none;stroke:#444444;"/>
    <path clip-path="url(#pdb9fa31e48)" d="
M316.033 169.473
L316.16 171.884" style="fill:none;stroke:#444444;"/>
    <path clip-path="url(#pdb9fa31e48)" d="
M109.017 243.056
L106.88 255.489" style="fill:none;stroke:#444444;"/>
    <path clip-path="url(#pdb9fa31e48)" d="
M232.38 216.246
L231.215 213.332" style="fill:none;stroke:#444444;"/>
    <path clip-path="url(#pdb9fa31e48)" d="
M232.38 216.246
L222.667 217.606" style="fill:none;stroke:#444444;"/>
    <path clip-path="url(#pdb9fa31e48)" d="
M363.32 182.443
L362.201 197.439" style="fill:none;stroke:#444444;"/>
    <path clip-path="url(#pdb9fa31e48)" d="
M363.32 182.443
L364.02 174.22" style="fill:none;stroke:#444444;"/>
    <path clip-path="url(#pdb9fa31e48)" d="
M104.16 128.24
L119.508 126.88" style="fill:none;stroke:#444444;"/>
    <path clip-path="url(#pdb9fa31e48)" d="
M104.16 128.24
L105.132 146.891" style="fill:none;stroke:#444444;"/>
    <path clip-path="url(#pdb9fa31e48)" d="
M251.808 124.938
L246.326 137.313" style="fill:none;stroke:#444444;"/>
    <path clip-path="url(#pdb9fa31e48)" d="
M251.808 124.938
L246.951 125.521" style="fill:none;stroke:#444444;"/>
    <path clip-path="url(#pdb9fa31e48)" d="
M231.215 213.332
L229.267 208.013" style="fill:none;stroke:#444444;"/>
    <path clip-path="url(#pdb9fa31e48)" d="
M364.02 174.22
L341.384 173.115" style="fill:none;stroke:#444444;"/>
    <path clip-path="url(#pdb9fa31e48)" d="
M316.313 174.801
L316.16 171.884" style="fill:none;stroke:#444444;"/>
    <path clip-path="url(#pdb9fa31e48)" d="
M286.88 231.972
L285.805 224.988" style="fill:none;stroke:#444444;"/>
    <path clip-path="url(#pdb9fa31e48)" d="
M286.88 231.972
L288.137 240.142" style="fill:none;stroke:#444444;"/>
    <path clip-path="url(#pdb9fa31e48)" d="
M292.022 247.135
L290.662 234.508" style="fill:none;stroke:#444444;"/>
    <path clip-path="url(#pdb9fa31e48)" d="
M292.022 247.135
L293.382 254.712" style="fill:none;stroke:#444444;"/>
    <path clip-path="url(#pdb9fa31e48)" d="
M212.37 117.75
L216.839 118.332" style="fill:none;stroke:#444444;"/>
    <path clip-path="url(#pdb9fa31e48)" d="
M271.818 189.048
L273.76 201.481" style="fill:none;stroke:#444444;"/>
    <path clip-path="url(#pdb9fa31e48)" d="
M119.508 126.88
L134.273 122.412" style="fill:none;stroke:#444444;"/>
    <path clip-path="url(#pdb9fa31e48)" d="
M103.578 289.293
L119.119 289.487" style="fill:none;stroke:#444444;"/>
    <path clip-path="url(#pdb9fa31e48)" d="
M147.095 118.332
L149.772 118.154" style="fill:none;stroke:#444444;"/>
    <path clip-path="url(#pdb9fa31e48)" d="
M218.109 219.252
L222.667 217.606" style="fill:none;stroke:#444444;"/>
    <path clip-path="url(#pdb9fa31e48)" d="
M218.109 219.252
L221.987 258.62" style="fill:none;stroke:#444444;"/>
    <path clip-path="url(#pdb9fa31e48)" d="
M278.423 202.647
L276.092 196.624" style="fill:none;stroke:#444444;"/>
    <path clip-path="url(#pdb9fa31e48)" d="
M109.017 207.309
L109.452 222.252" style="fill:none;stroke:#444444;"/>
    <path clip-path="url(#pdb9fa31e48)" d="
M170.796 276.276
L161.324 276.137" style="fill:none;stroke:#444444;"/>
    <path clip-path="url(#pdb9fa31e48)" d="
M284.674 102.933
L292.994 58.885" style="fill:none;stroke:#444444;"/>
    <path clip-path="url(#pdb9fa31e48)" d="
M194.886 117.75
L191.583 118.721" style="fill:none;stroke:#444444;"/>
    <path clip-path="url(#pdb9fa31e48)" d="
M201.88 283.659
L208.679 283.659" style="fill:none;stroke:#444444;"/>
    <path clip-path="url(#pdb9fa31e48)" d="
M336.316 259.957
L343.504 262.483" style="fill:none;stroke:#444444;"/>
    <path clip-path="url(#pdb9fa31e48)" d="
M288.137 240.142
L290.079 253.741" style="fill:none;stroke:#444444;"/>
    <path clip-path="url(#pdb9fa31e48)" d="
M316.16 171.884
L341.384 173.115" style="fill:none;stroke:#444444;"/>
    <path clip-path="url(#pdb9fa31e48)" d="
M137.767 256.02
L138.562 215.074" style="fill:none;stroke:#444444;"/>
    <path clip-path="url(#pdb9fa31e48)" d="
M137.767 256.02
L106.532 258.772" style="fill:none;stroke:#444444;"/>
    <path clip-path="url(#pdb9fa31e48)" d="
M332.602 142.405
L312.307 140.296" style="fill:none;stroke:#444444;"/>
    <path clip-path="url(#pdb9fa31e48)" d="
M332.602 142.405
L341.384 173.115" style="fill:none;stroke:#444444;"/>
    <path clip-path="url(#pdb9fa31e48)" d="
M296.879 260.152
L293.382 254.712" style="fill:none;stroke:#444444;"/>
    <path clip-path="url(#pdb9fa31e48)" d="
M239.471 152.79
L246.326 137.313" style="fill:none;stroke:#444444;"/>
    <path clip-path="url(#pdb9fa31e48)" d="
M285.805 224.988
L283.668 216.052" style="fill:none;stroke:#444444;"/>
    <path clip-path="url(#pdb9fa31e48)" d="
M106.88 255.489
L106.532 258.772" style="fill:none;stroke:#444444;"/>
    <path clip-path="url(#pdb9fa31e48)" d="
M152.56 142.007
L149.772 118.154" style="fill:none;stroke:#444444;"/>
    <path clip-path="url(#pdb9fa31e48)" d="
M152.56 142.007
L105.132 146.891" style="fill:none;stroke:#444444;"/>
    <path clip-path="url(#pdb9fa31e48)" d="
M181.481 120.664
L185.366 119.887" style="fill:none;stroke:#444444;"/>
    <path clip-path="url(#pdb9fa31e48)" d="
M149.772 118.154
L152.923 117.944" style="fill:none;stroke:#444444;"/>
    <path clip-path="url(#pdb9fa31e48)" d="
M191.583 118.721
L185.366 119.887" style="fill:none;stroke:#444444;"/>
    <path clip-path="url(#pdb9fa31e48)" d="
M224.908 196.112
L229.267 208.013" style="fill:none;stroke:#444444;"/>
    <path clip-path="url(#pdb9fa31e48)" d="
M325.785 108.479
L332.038 72.2532" style="fill:none;stroke:#444444;"/>
    <path clip-path="url(#pdb9fa31e48)" d="
M231.409 122.995
L246.951 125.521" style="fill:none;stroke:#444444;"/>
    <path clip-path="url(#pdb9fa31e48)" d="
M292.994 58.885
L306.204 60.2449" style="fill:none;stroke:#444444;"/>
    <path clip-path="url(#pdb9fa31e48)" d="
M292.994 58.885
L285.417 59.0792" style="fill:none;stroke:#444444;"/>
    <path clip-path="url(#pdb9fa31e48)" d="
M311.574 135.743
L246.326 137.313" style="fill:none;stroke:#444444;"/>
    <path clip-path="url(#pdb9fa31e48)" d="
M311.574 135.743
L312.307 140.296" style="fill:none;stroke:#444444;"/>
    <path clip-path="url(#pdb9fa31e48)" d="
M163.547 208.914
L161.324 276.137" style="fill:none;stroke:#444444;"/>
    <path clip-path="url(#pdb9fa31e48)" d="
M163.547 208.914
L183.904 203.895" style="fill:none;stroke:#444444;"/>
    <path clip-path="url(#pdb9fa31e48)" d="
M163.547 208.914
L138.562 215.074" style="fill:none;stroke:#444444;"/>
    <path clip-path="url(#pdb9fa31e48)" d="
M190.418 234.119
L207.319 225.182" style="fill:none;stroke:#444444;"/>
    <path clip-path="url(#pdb9fa31e48)" d="
M109.452 222.252
L138.562 215.074" style="fill:none;stroke:#444444;"/>
    <path clip-path="url(#pdb9fa31e48)" d="
M263.075 82.392
L269.875 58.6908" style="fill:none;stroke:#444444;"/>
    <path clip-path="url(#pdb9fa31e48)" d="
M359.046 265.203
L357.298 265.203" style="fill:none;stroke:#444444;"/>
    <path clip-path="url(#pdb9fa31e48)" d="
M285.417 59.0792
L277.063 59.2736" style="fill:none;stroke:#444444;"/>
    <path clip-path="url(#pdb9fa31e48)" d="
M183.904 203.895
L187.892 231.982" style="fill:none;stroke:#444444;"/>
    <path clip-path="url(#pdb9fa31e48)" d="
M161.277 118.721
L168.659 119.692" style="fill:none;stroke:#444444;"/>
    <path clip-path="url(#pdb9fa31e48)" d="
M161.277 118.721
L152.923 117.944" style="fill:none;stroke:#444444;"/>
    <path clip-path="url(#pdb9fa31e48)" d="
M269.875 58.6908
L277.063 59.2736" style="fill:none;stroke:#444444;"/>
   </g>
   <g id="PathCollection_1">
    <path clip-path="url(#pdb9fa31e48)" d="
M275.769 273.802
C275.863 273.802 275.953 273.765 276.019 273.699
C276.085 273.632 276.123 273.542 276.123 273.449
C276.123 273.355 276.085 273.265 276.019 273.199
C275.953 273.132 275.863 273.095 275.769 273.095
C275.675 273.095 275.585 273.132 275.519 273.199
C275.453 273.265 275.415 273.355 275.415 273.449
C275.415 273.542 275.453 273.632 275.519 273.699
C275.585 273.765 275.675 273.802 275.769 273.802
z
" style="fill:#444444;stroke:#000000;"/>
    <path clip-path="url(#pdb9fa31e48)" d="
M220.336 215.045
C220.429 215.045 220.519 215.008 220.586 214.942
C220.652 214.876 220.689 214.786 220.689 214.692
C220.689 214.598 220.652 214.508 220.586 214.442
C220.519 214.376 220.429 214.338 220.336 214.338
C220.242 214.338 220.152 214.376 220.086 214.442
C220.019 214.508 219.982 214.598 219.982 214.692
C219.982 214.786 220.019 214.876 220.086 214.942
C220.152 215.008 220.242 215.045 220.336 215.045
z
" style="fill:#444444;stroke:#000000;"/>
    <path clip-path="url(#pdb9fa31e48)" d="
M306.933 107.24
C307.027 107.24 307.117 107.203 307.183 107.136
C307.249 107.07 307.287 106.98 307.287 106.886
C307.287 106.793 307.249 106.703 307.183 106.636
C307.117 106.57 307.027 106.533 306.933 106.533
C306.839 106.533 306.749 106.57 306.683 106.636
C306.617 106.703 306.579 106.793 306.579 106.886
C306.579 106.98 306.617 107.07 306.683 107.136
C306.749 107.203 306.839 107.24 306.933 107.24
z
" style="fill:#444444;stroke:#000000;"/>
    <path clip-path="url(#pdb9fa31e48)" d="
M289.497 226.896
C289.59 226.896 289.68 226.859 289.747 226.792
C289.813 226.726 289.85 226.636 289.85 226.542
C289.85 226.449 289.813 226.359 289.747 226.292
C289.68 226.226 289.59 226.189 289.497 226.189
C289.403 226.189 289.313 226.226 289.247 226.292
C289.18 226.359 289.143 226.449 289.143 226.542
C289.143 226.636 289.18 226.726 289.247 226.792
C289.313 226.859 289.403 226.896 289.497 226.896
z
" style="fill:#444444;stroke:#000000;"/>
    <path clip-path="url(#pdb9fa31e48)" d="
M157.585 276.436
C157.679 276.436 157.769 276.398 157.835 276.332
C157.902 276.266 157.939 276.176 157.939 276.082
C157.939 275.988 157.902 275.898 157.835 275.832
C157.769 275.766 157.679 275.728 157.585 275.728
C157.492 275.728 157.402 275.766 157.335 275.832
C157.269 275.898 157.232 275.988 157.232 276.082
C157.232 276.176 157.269 276.266 157.335 276.332
C157.402 276.398 157.492 276.436 157.585 276.436
z
" style="fill:#444444;stroke:#000000;"/>
    <path clip-path="url(#pdb9fa31e48)" d="
M223.055 120.629
C223.149 120.629 223.239 120.591 223.305 120.525
C223.372 120.459 223.409 120.369 223.409 120.275
C223.409 120.181 223.372 120.091 223.305 120.025
C223.239 119.959 223.149 119.922 223.055 119.922
C222.962 119.922 222.872 119.959 222.805 120.025
C222.739 120.091 222.702 120.181 222.702 120.275
C222.702 120.369 222.739 120.459 222.805 120.525
C222.872 120.591 222.962 120.629 223.055 120.629
z
" style="fill:#444444;stroke:#000000;"/>
    <path clip-path="url(#pdb9fa31e48)" d="
M360.406 221.845
C360.5 221.845 360.59 221.808 360.656 221.741
C360.723 221.675 360.76 221.585 360.76 221.491
C360.76 221.398 360.723 221.308 360.656 221.241
C360.59 221.175 360.5 221.138 360.406 221.138
C360.313 221.138 360.223 221.175 360.156 221.241
C360.09 221.308 360.053 221.398 360.053 221.491
C360.053 221.585 360.09 221.675 360.156 221.741
C360.223 221.808 360.313 221.845 360.406 221.845
z
" style="fill:#444444;stroke:#000000;"/>
    <path clip-path="url(#pdb9fa31e48)" d="
M224.187 152.047
C224.281 152.047 224.37 152.01 224.437 151.943
C224.503 151.877 224.54 151.787 224.54 151.693
C224.54 151.6 224.503 151.51 224.437 151.443
C224.37 151.377 224.281 151.34 224.187 151.34
C224.093 151.34 224.003 151.377 223.937 151.443
C223.87 151.51 223.833 151.6 223.833 151.693
C223.833 151.787 223.87 151.877 223.937 151.943
C224.003 152.01 224.093 152.047 224.187 152.047
z
" style="fill:#444444;stroke:#000000;"/>
    <path clip-path="url(#pdb9fa31e48)" d="
M366.429 146.273
C366.522 146.273 366.612 146.236 366.679 146.169
C366.745 146.103 366.782 146.013 366.782 145.919
C366.782 145.825 366.745 145.736 366.679 145.669
C366.612 145.603 366.522 145.566 366.429 145.566
C366.335 145.566 366.245 145.603 366.179 145.669
C366.112 145.736 366.075 145.825 366.075 145.919
C366.075 146.013 366.112 146.103 366.179 146.169
C366.245 146.236 366.335 146.273 366.429 146.273
z
" style="fill:#444444;stroke:#000000;"/>
    <path clip-path="url(#pdb9fa31e48)" d="
M318.19 197.667
C318.283 197.667 318.373 197.63 318.44 197.564
C318.506 197.498 318.543 197.408 318.543 197.314
C318.543 197.22 318.506 197.13 318.44 197.064
C318.373 196.998 318.283 196.96 318.19 196.96
C318.096 196.96 318.006 196.998 317.94 197.064
C317.873 197.13 317.836 197.22 317.836 197.314
C317.836 197.408 317.873 197.498 317.94 197.564
C318.006 197.63 318.096 197.667 318.19 197.667
z
" style="fill:#444444;stroke:#000000;"/>
    <path clip-path="url(#pdb9fa31e48)" d="
M283.668 216.405
C283.762 216.405 283.852 216.368 283.918 216.302
C283.985 216.235 284.022 216.145 284.022 216.052
C284.022 215.958 283.985 215.868 283.918 215.802
C283.852 215.735 283.762 215.698 283.668 215.698
C283.575 215.698 283.485 215.735 283.418 215.802
C283.352 215.868 283.315 215.958 283.315 216.052
C283.315 216.145 283.352 216.235 283.418 216.302
C283.485 216.368 283.575 216.405 283.668 216.405
z
" style="fill:#444444;stroke:#000000;"/>
    <path clip-path="url(#pdb9fa31e48)" d="
M196.634 282.847
C196.728 282.847 196.818 282.809 196.884 282.743
C196.95 282.677 196.988 282.587 196.988 282.493
C196.988 282.399 196.95 282.309 196.884 282.243
C196.818 282.177 196.728 282.139 196.634 282.139
C196.54 282.139 196.45 282.177 196.384 282.243
C196.318 282.309 196.281 282.399 196.281 282.493
C196.281 282.587 196.318 282.677 196.384 282.743
C196.45 282.809 196.54 282.847 196.634 282.847
z
" style="fill:#444444;stroke:#000000;"/>
    <path clip-path="url(#pdb9fa31e48)" d="
M193.72 251.763
C193.814 251.763 193.904 251.726 193.97 251.659
C194.036 251.593 194.074 251.503 194.074 251.409
C194.074 251.316 194.036 251.226 193.97 251.159
C193.904 251.093 193.814 251.056 193.72 251.056
C193.626 251.056 193.536 251.093 193.47 251.159
C193.404 251.226 193.367 251.316 193.367 251.409
C193.367 251.503 193.404 251.593 193.47 251.659
C193.536 251.726 193.626 251.763 193.72 251.763
z
" style="fill:#444444;stroke:#000000;"/>
    <path clip-path="url(#pdb9fa31e48)" d="
M330.184 259.979
C330.278 259.979 330.368 259.942 330.434 259.876
C330.501 259.81 330.538 259.72 330.538 259.626
C330.538 259.532 330.501 259.442 330.434 259.376
C330.368 259.31 330.278 259.272 330.184 259.272
C330.09 259.272 330.001 259.31 329.934 259.376
C329.868 259.442 329.831 259.532 329.831 259.626
C329.831 259.72 329.868 259.81 329.934 259.876
C330.001 259.942 330.09 259.979 330.184 259.979
z
" style="fill:#444444;stroke:#000000;"/>
    <path clip-path="url(#pdb9fa31e48)" d="
M202.657 117.52
C202.75 117.52 202.84 117.483 202.907 117.417
C202.973 117.351 203.01 117.261 203.01 117.167
C203.01 117.073 202.973 116.983 202.907 116.917
C202.84 116.851 202.75 116.813 202.657 116.813
C202.563 116.813 202.473 116.851 202.407 116.917
C202.34 116.983 202.303 117.073 202.303 117.167
C202.303 117.261 202.34 117.351 202.407 117.417
C202.473 117.483 202.563 117.52 202.657 117.52
z
" style="fill:#444444;stroke:#000000;"/>
    <path clip-path="url(#pdb9fa31e48)" d="
M350.693 265.168
C350.786 265.168 350.876 265.131 350.943 265.064
C351.009 264.998 351.046 264.908 351.046 264.814
C351.046 264.72 351.009 264.631 350.943 264.564
C350.876 264.498 350.786 264.461 350.693 264.461
C350.599 264.461 350.509 264.498 350.443 264.564
C350.376 264.631 350.339 264.72 350.339 264.814
C350.339 264.908 350.376 264.998 350.443 265.064
C350.509 265.131 350.599 265.168 350.693 265.168
z
" style="fill:#444444;stroke:#000000;"/>
    <path clip-path="url(#pdb9fa31e48)" d="
M189.058 279.35
C189.151 279.35 189.241 279.312 189.308 279.246
C189.374 279.18 189.411 279.09 189.411 278.996
C189.411 278.902 189.374 278.812 189.308 278.746
C189.241 278.68 189.151 278.643 189.058 278.643
C188.964 278.643 188.874 278.68 188.808 278.746
C188.741 278.812 188.704 278.902 188.704 278.996
C188.704 279.09 188.741 279.18 188.808 279.246
C188.874 279.312 188.964 279.35 189.058 279.35
z
" style="fill:#444444;stroke:#000000;"/>
    <path clip-path="url(#pdb9fa31e48)" d="
M258.607 277.795
C258.701 277.795 258.791 277.758 258.857 277.692
C258.924 277.626 258.961 277.536 258.961 277.442
C258.961 277.348 258.924 277.258 258.857 277.192
C258.791 277.126 258.701 277.088 258.607 277.088
C258.514 277.088 258.424 277.126 258.357 277.192
C258.291 277.258 258.254 277.348 258.254 277.442
C258.254 277.536 258.291 277.626 258.357 277.692
C258.424 277.758 258.514 277.795 258.607 277.795
z
" style="fill:#444444;stroke:#000000;"/>
    <path clip-path="url(#pdb9fa31e48)" d="
M328.074 218.478
C328.168 218.478 328.258 218.441 328.324 218.374
C328.391 218.308 328.428 218.218 328.428 218.124
C328.428 218.03 328.391 217.941 328.324 217.874
C328.258 217.808 328.168 217.771 328.074 217.771
C327.981 217.771 327.891 217.808 327.824 217.874
C327.758 217.941 327.721 218.03 327.721 218.124
C327.721 218.218 327.758 218.308 327.824 218.374
C327.891 218.441 327.981 218.478 328.074 218.478
z
" style="fill:#444444;stroke:#000000;"/>
    <path clip-path="url(#pdb9fa31e48)" d="
M210.816 221.456
C210.91 221.456 211 221.419 211.066 221.353
C211.132 221.287 211.17 221.197 211.17 221.103
C211.17 221.009 211.132 220.919 211.066 220.853
C211 220.787 210.91 220.749 210.816 220.749
C210.722 220.749 210.632 220.787 210.566 220.853
C210.5 220.919 210.463 221.009 210.463 221.103
C210.463 221.197 210.5 221.287 210.566 221.353
C210.632 221.419 210.722 221.456 210.816 221.456
z
" style="fill:#444444;stroke:#000000;"/>
    <path clip-path="url(#pdb9fa31e48)" d="
M186.532 234.667
C186.626 234.667 186.716 234.63 186.782 234.563
C186.848 234.497 186.886 234.407 186.886 234.313
C186.886 234.22 186.848 234.13 186.782 234.063
C186.716 233.997 186.626 233.96 186.532 233.96
C186.438 233.96 186.348 233.997 186.282 234.063
C186.216 234.13 186.178 234.22 186.178 234.313
C186.178 234.407 186.216 234.497 186.282 234.563
C186.348 234.63 186.438 234.667 186.532 234.667
z
" style="fill:#444444;stroke:#000000;"/>
    <path clip-path="url(#pdb9fa31e48)" d="
M242.889 248.049
C242.983 248.049 243.073 248.012 243.139 247.946
C243.205 247.88 243.243 247.79 243.243 247.696
C243.243 247.602 243.205 247.512 243.139 247.446
C243.073 247.38 242.983 247.342 242.889 247.342
C242.795 247.342 242.705 247.38 242.639 247.446
C242.573 247.512 242.535 247.602 242.535 247.696
C242.535 247.79 242.573 247.88 242.639 247.946
C242.705 248.012 242.795 248.049 242.889 248.049
z
" style="fill:#444444;stroke:#000000;"/>
    <path clip-path="url(#pdb9fa31e48)" d="
M296.296 267.888
C296.39 267.888 296.48 267.85 296.546 267.784
C296.613 267.718 296.65 267.628 296.65 267.534
C296.65 267.44 296.613 267.35 296.546 267.284
C296.48 267.218 296.39 267.18 296.296 267.18
C296.202 267.18 296.113 267.218 296.046 267.284
C295.98 267.35 295.943 267.44 295.943 267.534
C295.943 267.628 295.98 267.718 296.046 267.784
C296.113 267.85 296.202 267.888 296.296 267.888
z
" style="fill:#444444;stroke:#000000;"/>
    <path clip-path="url(#pdb9fa31e48)" d="
M105.52 268.665
C105.614 268.665 105.704 268.627 105.77 268.561
C105.837 268.495 105.874 268.405 105.874 268.311
C105.874 268.217 105.837 268.127 105.77 268.061
C105.704 267.995 105.614 267.958 105.52 267.958
C105.427 267.958 105.337 267.995 105.27 268.061
C105.204 268.127 105.167 268.217 105.167 268.311
C105.167 268.405 105.204 268.495 105.27 268.561
C105.337 268.627 105.427 268.665 105.52 268.665
z
" style="fill:#444444;stroke:#000000;"/>
    <path clip-path="url(#pdb9fa31e48)" d="
M224.908 196.466
C225.002 196.466 225.092 196.429 225.158 196.362
C225.225 196.296 225.262 196.206 225.262 196.112
C225.262 196.018 225.225 195.929 225.158 195.862
C225.092 195.796 225.002 195.759 224.908 195.759
C224.815 195.759 224.725 195.796 224.658 195.862
C224.592 195.929 224.555 196.018 224.555 196.112
C224.555 196.206 224.592 196.296 224.658 196.362
C224.725 196.429 224.815 196.466 224.908 196.466
z
" style="fill:#444444;stroke:#000000;"/>
    <path clip-path="url(#pdb9fa31e48)" d="
M106.686 168.031
C106.78 168.031 106.87 167.994 106.936 167.928
C107.002 167.862 107.039 167.772 107.039 167.678
C107.039 167.584 107.002 167.494 106.936 167.428
C106.87 167.362 106.78 167.324 106.686 167.324
C106.592 167.324 106.502 167.362 106.436 167.428
C106.37 167.494 106.332 167.584 106.332 167.678
C106.332 167.772 106.37 167.862 106.436 167.928
C106.502 167.994 106.592 168.031 106.686 168.031
z
" style="fill:#444444;stroke:#000000;"/>
    <path clip-path="url(#pdb9fa31e48)" d="
M285.805 211.16
C285.899 211.16 285.989 211.123 286.055 211.056
C286.122 210.99 286.159 210.9 286.159 210.806
C286.159 210.713 286.122 210.623 286.055 210.556
C285.989 210.49 285.899 210.453 285.805 210.453
C285.712 210.453 285.622 210.49 285.555 210.556
C285.489 210.623 285.452 210.713 285.452 210.806
C285.452 210.9 285.489 210.99 285.555 211.056
C285.622 211.123 285.712 211.16 285.805 211.16
z
" style="fill:#444444;stroke:#000000;"/>
    <path clip-path="url(#pdb9fa31e48)" d="
M215.673 220.485
C215.767 220.485 215.857 220.448 215.923 220.381
C215.989 220.315 216.027 220.225 216.027 220.131
C216.027 220.038 215.989 219.948 215.923 219.881
C215.857 219.815 215.767 219.778 215.673 219.778
C215.579 219.778 215.489 219.815 215.423 219.881
C215.357 219.948 215.319 220.038 215.319 220.131
C215.319 220.225 215.357 220.315 215.423 220.381
C215.489 220.448 215.579 220.485 215.673 220.485
z
" style="fill:#444444;stroke:#000000;"/>
    <path clip-path="url(#pdb9fa31e48)" d="
M247.895 279.571
C247.989 279.571 248.079 279.533 248.145 279.467
C248.212 279.401 248.249 279.311 248.249 279.217
C248.249 279.123 248.212 279.033 248.145 278.967
C248.079 278.901 247.989 278.863 247.895 278.863
C247.801 278.863 247.712 278.901 247.645 278.967
C247.579 279.033 247.542 279.123 247.542 279.217
C247.542 279.311 247.579 279.401 247.645 279.467
C247.712 279.533 247.801 279.571 247.895 279.571
z
" style="fill:#444444;stroke:#000000;"/>
    <path clip-path="url(#pdb9fa31e48)" d="
M192.166 261.477
C192.26 261.477 192.35 261.439 192.416 261.373
C192.482 261.307 192.52 261.217 192.52 261.123
C192.52 261.029 192.482 260.939 192.416 260.873
C192.35 260.807 192.26 260.77 192.166 260.77
C192.072 260.77 191.982 260.807 191.916 260.873
C191.85 260.939 191.812 261.029 191.812 261.123
C191.812 261.217 191.85 261.307 191.916 261.373
C191.982 261.439 192.072 261.477 192.166 261.477
z
" style="fill:#444444;stroke:#000000;"/>
    <path clip-path="url(#pdb9fa31e48)" d="
M238.724 235.584
C238.818 235.584 238.908 235.547 238.974 235.481
C239.04 235.414 239.078 235.324 239.078 235.231
C239.078 235.137 239.04 235.047 238.974 234.981
C238.908 234.914 238.818 234.877 238.724 234.877
C238.63 234.877 238.54 234.914 238.474 234.981
C238.408 235.047 238.37 235.137 238.37 235.231
C238.37 235.324 238.408 235.414 238.474 235.481
C238.54 235.547 238.63 235.584 238.724 235.584
z
" style="fill:#444444;stroke:#000000;"/>
    <path clip-path="url(#pdb9fa31e48)" d="
M184.201 277.407
C184.294 277.407 184.384 277.37 184.451 277.303
C184.517 277.237 184.554 277.147 184.554 277.053
C184.554 276.96 184.517 276.87 184.451 276.803
C184.384 276.737 184.294 276.7 184.201 276.7
C184.107 276.7 184.017 276.737 183.951 276.803
C183.884 276.87 183.847 276.96 183.847 277.053
C183.847 277.147 183.884 277.237 183.951 277.303
C184.017 277.37 184.107 277.407 184.201 277.407
z
" style="fill:#444444;stroke:#000000;"/>
    <path clip-path="url(#pdb9fa31e48)" d="
M378.668 88.5738
C378.762 88.5738 378.852 88.5365 378.918 88.4702
C378.984 88.4039 379.021 88.314 379.021 88.2202
C379.021 88.1265 378.984 88.0365 378.918 87.9702
C378.852 87.9039 378.762 87.8667 378.668 87.8667
C378.574 87.8667 378.484 87.9039 378.418 87.9702
C378.352 88.0365 378.314 88.1265 378.314 88.2202
C378.314 88.314 378.352 88.4039 378.418 88.4702
C378.484 88.5365 378.574 88.5738 378.668 88.5738
z
" style="fill:#444444;stroke:#000000;"/>
    <path clip-path="url(#pdb9fa31e48)" d="
M251.486 177.588
C251.58 177.588 251.67 177.551 251.736 177.484
C251.803 177.418 251.84 177.328 251.84 177.234
C251.84 177.141 251.803 177.051 251.736 176.984
C251.67 176.918 251.58 176.881 251.486 176.881
C251.393 176.881 251.303 176.918 251.236 176.984
C251.17 177.051 251.133 177.141 251.133 177.234
C251.133 177.328 251.17 177.418 251.236 177.484
C251.303 177.551 251.393 177.588 251.486 177.588
z
" style="fill:#444444;stroke:#000000;"/>
    <path clip-path="url(#pdb9fa31e48)" d="
M278.229 208.246
C278.323 208.246 278.413 208.209 278.479 208.142
C278.545 208.076 278.582 207.986 278.582 207.892
C278.582 207.798 278.545 207.709 278.479 207.642
C278.413 207.576 278.323 207.539 278.229 207.539
C278.135 207.539 278.045 207.576 277.979 207.642
C277.913 207.709 277.875 207.798 277.875 207.892
C277.875 207.986 277.913 208.076 277.979 208.142
C278.045 208.209 278.135 208.246 278.229 208.246
z
" style="fill:#444444;stroke:#000000;"/>
    <path clip-path="url(#pdb9fa31e48)" d="
M192.749 282.07
C192.843 282.07 192.932 282.032 192.999 281.966
C193.065 281.9 193.102 281.81 193.102 281.716
C193.102 281.622 193.065 281.532 192.999 281.466
C192.932 281.4 192.843 281.362 192.749 281.362
C192.655 281.362 192.565 281.4 192.499 281.466
C192.432 281.532 192.395 281.622 192.395 281.716
C192.395 281.81 192.432 281.9 192.499 281.966
C192.565 282.032 192.655 282.07 192.749 282.07
z
" style="fill:#444444;stroke:#000000;"/>
    <path clip-path="url(#pdb9fa31e48)" d="
M331.896 235.563
C331.989 235.563 332.079 235.526 332.146 235.46
C332.212 235.393 332.249 235.303 332.249 235.21
C332.249 235.116 332.212 235.026 332.146 234.96
C332.079 234.893 331.989 234.856 331.896 234.856
C331.802 234.856 331.712 234.893 331.646 234.96
C331.579 235.026 331.542 235.116 331.542 235.21
C331.542 235.303 331.579 235.393 331.646 235.46
C331.712 235.526 331.802 235.563 331.896 235.563
z
" style="fill:#444444;stroke:#000000;"/>
    <path clip-path="url(#pdb9fa31e48)" d="
M262.881 89.545
C262.975 89.545 263.065 89.5078 263.131 89.4415
C263.198 89.3752 263.235 89.2853 263.235 89.1915
C263.235 89.0977 263.198 89.0078 263.131 88.9415
C263.065 88.8752 262.975 88.8379 262.881 88.8379
C262.788 88.8379 262.698 88.8752 262.631 88.9415
C262.565 89.0078 262.528 89.0977 262.528 89.1915
C262.528 89.2853 262.565 89.3752 262.631 89.4415
C262.698 89.5078 262.788 89.545 262.881 89.545
z
" style="fill:#444444;stroke:#000000;"/>
    <path clip-path="url(#pdb9fa31e48)" d="
M109.017 243.409
C109.111 243.409 109.201 243.372 109.267 243.306
C109.333 243.239 109.371 243.149 109.371 243.056
C109.371 242.962 109.333 242.872 109.267 242.806
C109.201 242.739 109.111 242.702 109.017 242.702
C108.923 242.702 108.833 242.739 108.767 242.806
C108.701 242.872 108.664 242.962 108.664 243.056
C108.664 243.149 108.701 243.239 108.767 243.306
C108.833 243.372 108.923 243.409 109.017 243.409
z
" style="fill:#444444;stroke:#000000;"/>
    <path clip-path="url(#pdb9fa31e48)" d="
M329.128 259.922
C329.222 259.922 329.312 259.885 329.378 259.819
C329.445 259.753 329.482 259.663 329.482 259.569
C329.482 259.475 329.445 259.385 329.378 259.319
C329.312 259.253 329.222 259.215 329.128 259.215
C329.034 259.215 328.945 259.253 328.878 259.319
C328.812 259.385 328.775 259.475 328.775 259.569
C328.775 259.663 328.812 259.753 328.878 259.819
C328.945 259.885 329.034 259.922 329.128 259.922
z
" style="fill:#444444;stroke:#000000;"/>
    <path clip-path="url(#pdb9fa31e48)" d="
M315.563 160.896
C315.657 160.896 315.747 160.859 315.813 160.793
C315.879 160.726 315.917 160.636 315.917 160.543
C315.917 160.449 315.879 160.359 315.813 160.293
C315.747 160.226 315.657 160.189 315.563 160.189
C315.469 160.189 315.379 160.226 315.313 160.293
C315.247 160.359 315.209 160.449 315.209 160.543
C315.209 160.636 315.247 160.726 315.313 160.793
C315.379 160.859 315.469 160.896 315.563 160.896
z
" style="fill:#444444;stroke:#000000;"/>
    <path clip-path="url(#pdb9fa31e48)" d="
M252.315 164.744
C252.409 164.744 252.499 164.707 252.565 164.641
C252.631 164.574 252.669 164.484 252.669 164.391
C252.669 164.297 252.631 164.207 252.565 164.141
C252.499 164.074 252.409 164.037 252.315 164.037
C252.221 164.037 252.131 164.074 252.065 164.141
C251.999 164.207 251.961 164.297 251.961 164.391
C251.961 164.484 251.999 164.574 252.065 164.641
C252.131 164.707 252.221 164.744 252.315 164.744
z
" style="fill:#444444;stroke:#000000;"/>
    <path clip-path="url(#pdb9fa31e48)" d="
M189.64 251.957
C189.734 251.957 189.824 251.92 189.89 251.854
C189.957 251.787 189.994 251.697 189.994 251.604
C189.994 251.51 189.957 251.42 189.89 251.354
C189.824 251.287 189.734 251.25 189.64 251.25
C189.547 251.25 189.457 251.287 189.39 251.354
C189.324 251.42 189.287 251.51 189.287 251.604
C189.287 251.697 189.324 251.787 189.39 251.854
C189.457 251.92 189.547 251.957 189.64 251.957
z
" style="fill:#444444;stroke:#000000;"/>
    <path clip-path="url(#pdb9fa31e48)" d="
M215.09 284.401
C215.184 284.401 215.274 284.363 215.34 284.297
C215.406 284.231 215.444 284.141 215.444 284.047
C215.444 283.953 215.406 283.863 215.34 283.797
C215.274 283.731 215.184 283.694 215.09 283.694
C214.996 283.694 214.906 283.731 214.84 283.797
C214.774 283.863 214.737 283.953 214.737 284.047
C214.737 284.141 214.774 284.231 214.84 284.297
C214.906 284.363 214.996 284.401 215.09 284.401
z
" style="fill:#444444;stroke:#000000;"/>
    <path clip-path="url(#pdb9fa31e48)" d="
M176.085 120.609
C176.179 120.609 176.268 120.571 176.335 120.505
C176.401 120.439 176.438 120.349 176.438 120.255
C176.438 120.161 176.401 120.071 176.335 120.005
C176.268 119.939 176.179 119.901 176.085 119.901
C175.991 119.901 175.901 119.939 175.835 120.005
C175.768 120.071 175.731 120.161 175.731 120.255
C175.731 120.349 175.768 120.439 175.835 120.505
C175.901 120.571 175.991 120.609 176.085 120.609
z
" style="fill:#444444;stroke:#000000;"/>
    <path clip-path="url(#pdb9fa31e48)" d="
M319.997 260.699
C320.091 260.699 320.181 260.662 320.247 260.596
C320.314 260.53 320.351 260.44 320.351 260.346
C320.351 260.252 320.314 260.162 320.247 260.096
C320.181 260.03 320.091 259.992 319.997 259.992
C319.904 259.992 319.814 260.03 319.747 260.096
C319.681 260.162 319.644 260.252 319.644 260.346
C319.644 260.44 319.681 260.53 319.747 260.596
C319.814 260.662 319.904 260.699 319.997 260.699
z
" style="fill:#444444;stroke:#000000;"/>
    <path clip-path="url(#pdb9fa31e48)" d="
M109.6 227.673
C109.694 227.673 109.784 227.636 109.85 227.57
C109.916 227.503 109.953 227.413 109.953 227.32
C109.953 227.226 109.916 227.136 109.85 227.07
C109.784 227.003 109.694 226.966 109.6 226.966
C109.506 226.966 109.416 227.003 109.35 227.07
C109.284 227.136 109.246 227.226 109.246 227.32
C109.246 227.413 109.284 227.503 109.35 227.57
C109.416 227.636 109.506 227.673 109.6 227.673
z
" style="fill:#444444;stroke:#000000;"/>
    <path clip-path="url(#pdb9fa31e48)" d="
M137.247 283.139
C137.341 283.139 137.431 283.101 137.497 283.035
C137.563 282.969 137.601 282.879 137.601 282.785
C137.601 282.691 137.563 282.601 137.497 282.535
C137.431 282.469 137.341 282.432 137.247 282.432
C137.153 282.432 137.063 282.469 136.997 282.535
C136.931 282.601 136.893 282.691 136.893 282.785
C136.893 282.879 136.931 282.969 136.997 283.035
C137.063 283.101 137.153 283.139 137.247 283.139
z
" style="fill:#444444;stroke:#000000;"/>
    <path clip-path="url(#pdb9fa31e48)" d="
M311.574 136.096
C311.668 136.096 311.758 136.059 311.824 135.993
C311.891 135.926 311.928 135.836 311.928 135.743
C311.928 135.649 311.891 135.559 311.824 135.493
C311.758 135.426 311.668 135.389 311.574 135.389
C311.48 135.389 311.391 135.426 311.324 135.493
C311.258 135.559 311.221 135.649 311.221 135.743
C311.221 135.836 311.258 135.926 311.324 135.993
C311.391 136.059 311.48 136.096 311.574 136.096
z
" style="fill:#444444;stroke:#000000;"/>
    <path clip-path="url(#pdb9fa31e48)" d="
M259.983 98.9014
C260.077 98.9014 260.166 98.8642 260.233 98.7979
C260.299 98.7316 260.336 98.6416 260.336 98.5479
C260.336 98.4541 260.299 98.3642 260.233 98.2979
C260.166 98.2316 260.077 98.1943 259.983 98.1943
C259.889 98.1943 259.799 98.2316 259.733 98.2979
C259.666 98.3642 259.629 98.4541 259.629 98.5479
C259.629 98.6416 259.666 98.7316 259.733 98.7979
C259.799 98.8642 259.889 98.9014 259.983 98.9014
z
" style="fill:#444444;stroke:#000000;"/>
    <path clip-path="url(#pdb9fa31e48)" d="
M273.372 274.493
C273.466 274.493 273.556 274.456 273.622 274.389
C273.688 274.323 273.726 274.233 273.726 274.139
C273.726 274.046 273.688 273.956 273.622 273.889
C273.556 273.823 273.466 273.786 273.372 273.786
C273.278 273.786 273.188 273.823 273.122 273.889
C273.056 273.956 273.018 274.046 273.018 274.139
C273.018 274.233 273.056 274.323 273.122 274.389
C273.188 274.456 273.278 274.493 273.372 274.493
z
" style="fill:#444444;stroke:#000000;"/>
    <path clip-path="url(#pdb9fa31e48)" d="
M288.331 219.902
C288.425 219.902 288.515 219.865 288.581 219.799
C288.647 219.732 288.685 219.642 288.685 219.549
C288.685 219.455 288.647 219.365 288.581 219.299
C288.515 219.232 288.425 219.195 288.331 219.195
C288.237 219.195 288.147 219.232 288.081 219.299
C288.015 219.365 287.977 219.455 287.977 219.549
C287.977 219.642 288.015 219.732 288.081 219.799
C288.147 219.865 288.237 219.902 288.331 219.902
z
" style="fill:#444444;stroke:#000000;"/>
    <path clip-path="url(#pdb9fa31e48)" d="
M275.703 189.401
C275.797 189.401 275.887 189.364 275.953 189.298
C276.02 189.231 276.057 189.142 276.057 189.048
C276.057 188.954 276.02 188.864 275.953 188.798
C275.887 188.731 275.797 188.694 275.703 188.694
C275.61 188.694 275.52 188.731 275.453 188.798
C275.387 188.864 275.35 188.954 275.35 189.048
C275.35 189.142 275.387 189.231 275.453 189.298
C275.52 189.364 275.61 189.401 275.703 189.401
z
" style="fill:#444444;stroke:#000000;"/>
    <path clip-path="url(#pdb9fa31e48)" d="
M299.599 265.751
C299.693 265.751 299.782 265.713 299.849 265.647
C299.915 265.581 299.952 265.491 299.952 265.397
C299.952 265.303 299.915 265.213 299.849 265.147
C299.782 265.081 299.693 265.043 299.599 265.043
C299.505 265.043 299.415 265.081 299.349 265.147
C299.282 265.213 299.245 265.303 299.245 265.397
C299.245 265.491 299.282 265.581 299.349 265.647
C299.415 265.713 299.505 265.751 299.599 265.751
z
" style="fill:#444444;stroke:#000000;"/>
    <path clip-path="url(#pdb9fa31e48)" d="
M205.372 198.955
C205.466 198.955 205.556 198.918 205.622 198.851
C205.688 198.785 205.726 198.695 205.726 198.601
C205.726 198.508 205.688 198.418 205.622 198.351
C205.556 198.285 205.466 198.248 205.372 198.248
C205.278 198.248 205.188 198.285 205.122 198.351
C205.056 198.418 205.019 198.508 205.019 198.601
C205.019 198.695 205.056 198.785 205.122 198.851
C205.188 198.918 205.278 198.955 205.372 198.955
z
" style="fill:#444444;stroke:#000000;"/>
    <path clip-path="url(#pdb9fa31e48)" d="
M281.92 206.303
C282.014 206.303 282.104 206.266 282.17 206.2
C282.236 206.133 282.274 206.043 282.274 205.95
C282.274 205.856 282.236 205.766 282.17 205.7
C282.104 205.633 282.014 205.596 281.92 205.596
C281.826 205.596 281.736 205.633 281.67 205.7
C281.604 205.766 281.566 205.856 281.566 205.95
C281.566 206.043 281.604 206.133 281.67 206.2
C281.736 206.266 281.826 206.303 281.92 206.303
z
" style="fill:#444444;stroke:#000000;"/>
    <path clip-path="url(#pdb9fa31e48)" d="
M224.61 283.429
C224.703 283.429 224.793 283.392 224.86 283.326
C224.926 283.26 224.963 283.17 224.963 283.076
C224.963 282.982 224.926 282.892 224.86 282.826
C224.793 282.76 224.703 282.722 224.61 282.722
C224.516 282.722 224.426 282.76 224.36 282.826
C224.293 282.892 224.256 282.982 224.256 283.076
C224.256 283.17 224.293 283.26 224.36 283.326
C224.426 283.392 224.516 283.429 224.61 283.429
z
" style="fill:#444444;stroke:#000000;"/>
    <path clip-path="url(#pdb9fa31e48)" d="
M314.946 63.7067
C315.04 63.7067 315.13 63.6695 315.196 63.6032
C315.263 63.5369 315.3 63.447 315.3 63.3532
C315.3 63.2594 315.263 63.1695 315.196 63.1032
C315.13 63.0369 315.04 62.9996 314.946 62.9996
C314.853 62.9996 314.763 63.0369 314.696 63.1032
C314.63 63.1695 314.593 63.2594 314.593 63.3532
C314.593 63.447 314.63 63.5369 314.696 63.6032
C314.763 63.6695 314.853 63.7067 314.946 63.7067
z
" style="fill:#444444;stroke:#000000;"/>
    <path clip-path="url(#pdb9fa31e48)" d="
M188.669 274.881
C188.763 274.881 188.853 274.844 188.919 274.778
C188.985 274.711 189.023 274.622 189.023 274.528
C189.023 274.434 188.985 274.344 188.919 274.278
C188.853 274.211 188.763 274.174 188.669 274.174
C188.575 274.174 188.485 274.211 188.419 274.278
C188.353 274.344 188.316 274.434 188.316 274.528
C188.316 274.622 188.353 274.711 188.419 274.778
C188.485 274.844 188.575 274.881 188.669 274.881
z
" style="fill:#444444;stroke:#000000;"/>
    <path clip-path="url(#pdb9fa31e48)" d="
M109.452 222.605
C109.546 222.605 109.636 222.568 109.702 222.502
C109.769 222.435 109.806 222.346 109.806 222.252
C109.806 222.158 109.769 222.068 109.702 222.002
C109.636 221.935 109.546 221.898 109.452 221.898
C109.359 221.898 109.269 221.935 109.202 222.002
C109.136 222.068 109.099 222.158 109.099 222.252
C109.099 222.346 109.136 222.435 109.202 222.502
C109.269 222.568 109.359 222.605 109.452 222.605
z
" style="fill:#444444;stroke:#000000;"/>
    <path clip-path="url(#pdb9fa31e48)" d="
M311.499 62.4811
C311.593 62.4811 311.683 62.4439 311.749 62.3776
C311.815 62.3113 311.853 62.2213 311.853 62.1276
C311.853 62.0338 311.815 61.9439 311.749 61.8776
C311.683 61.8113 311.593 61.774 311.499 61.774
C311.405 61.774 311.315 61.8113 311.249 61.8776
C311.183 61.9439 311.145 62.0338 311.145 62.1276
C311.145 62.2213 311.183 62.3113 311.249 62.3776
C311.315 62.4439 311.405 62.4811 311.499 62.4811
z
" style="fill:#444444;stroke:#000000;"/>
    <path clip-path="url(#pdb9fa31e48)" d="
M207.125 117.715
C207.219 117.715 207.309 117.677 207.375 117.611
C207.441 117.545 207.478 117.455 207.478 117.361
C207.478 117.267 207.441 117.177 207.375 117.111
C207.309 117.045 207.219 117.008 207.125 117.008
C207.031 117.008 206.941 117.045 206.875 117.111
C206.809 117.177 206.771 117.267 206.771 117.361
C206.771 117.455 206.809 117.545 206.875 117.611
C206.941 117.677 207.031 117.715 207.125 117.715
z
" style="fill:#444444;stroke:#000000;"/>
    <path clip-path="url(#pdb9fa31e48)" d="
M347.778 80.8029
C347.872 80.8029 347.962 80.7656 348.028 80.6993
C348.095 80.633 348.132 80.5431 348.132 80.4493
C348.132 80.3556 348.095 80.2656 348.028 80.1993
C347.962 80.133 347.872 80.0958 347.778 80.0958
C347.685 80.0958 347.595 80.133 347.528 80.1993
C347.462 80.2656 347.425 80.3556 347.425 80.4493
C347.425 80.5431 347.462 80.633 347.528 80.6993
C347.595 80.7656 347.685 80.8029 347.778 80.8029
z
" style="fill:#444444;stroke:#000000;"/>
    <path clip-path="url(#pdb9fa31e48)" d="
M107.851 186.487
C107.945 186.487 108.035 186.45 108.101 186.384
C108.168 186.317 108.205 186.227 108.205 186.134
C108.205 186.04 108.168 185.95 108.101 185.884
C108.035 185.817 107.945 185.78 107.851 185.78
C107.758 185.78 107.668 185.817 107.601 185.884
C107.535 185.95 107.498 186.04 107.498 186.134
C107.498 186.227 107.535 186.317 107.601 186.384
C107.668 186.45 107.758 186.487 107.851 186.487
z
" style="fill:#444444;stroke:#000000;"/>
    <path clip-path="url(#pdb9fa31e48)" d="
M244.326 257.099
C244.42 257.099 244.51 257.062 244.576 256.996
C244.643 256.929 244.68 256.839 244.68 256.746
C244.68 256.652 244.643 256.562 244.576 256.496
C244.51 256.429 244.42 256.392 244.326 256.392
C244.233 256.392 244.143 256.429 244.076 256.496
C244.01 256.562 243.973 256.652 243.973 256.746
C243.973 256.839 244.01 256.929 244.076 256.996
C244.143 257.062 244.233 257.099 244.326 257.099
z
" style="fill:#444444;stroke:#000000;"/>
    <path clip-path="url(#pdb9fa31e48)" d="
M216.839 118.686
C216.932 118.686 217.022 118.649 217.089 118.582
C217.155 118.516 217.192 118.426 217.192 118.332
C217.192 118.239 217.155 118.149 217.089 118.082
C217.022 118.016 216.932 117.979 216.839 117.979
C216.745 117.979 216.655 118.016 216.589 118.082
C216.522 118.149 216.485 118.239 216.485 118.332
C216.485 118.426 216.522 118.516 216.589 118.582
C216.655 118.649 216.745 118.686 216.839 118.686
z
" style="fill:#444444;stroke:#000000;"/>
    <path clip-path="url(#pdb9fa31e48)" d="
M316.033 169.826
C316.127 169.826 316.217 169.789 316.283 169.723
C316.349 169.656 316.387 169.566 316.387 169.473
C316.387 169.379 316.349 169.289 316.283 169.223
C316.217 169.156 316.127 169.119 316.033 169.119
C315.939 169.119 315.849 169.156 315.783 169.223
C315.717 169.289 315.679 169.379 315.679 169.473
C315.679 169.566 315.717 169.656 315.783 169.723
C315.849 169.789 315.939 169.826 316.033 169.826
z
" style="fill:#444444;stroke:#000000;"/>
    <path clip-path="url(#pdb9fa31e48)" d="
M141.849 119.852
C141.943 119.852 142.033 119.814 142.099 119.748
C142.166 119.682 142.203 119.592 142.203 119.498
C142.203 119.404 142.166 119.314 142.099 119.248
C142.033 119.182 141.943 119.145 141.849 119.145
C141.755 119.145 141.666 119.182 141.599 119.248
C141.533 119.314 141.496 119.404 141.496 119.498
C141.496 119.592 141.533 119.682 141.599 119.748
C141.666 119.814 141.755 119.852 141.849 119.852
z
" style="fill:#444444;stroke:#000000;"/>
    <path clip-path="url(#pdb9fa31e48)" d="
M232.38 216.599
C232.474 216.599 232.564 216.562 232.63 216.496
C232.697 216.43 232.734 216.34 232.734 216.246
C232.734 216.152 232.697 216.062 232.63 215.996
C232.564 215.93 232.474 215.892 232.38 215.892
C232.287 215.892 232.197 215.93 232.13 215.996
C232.064 216.062 232.027 216.152 232.027 216.246
C232.027 216.34 232.064 216.43 232.13 216.496
C232.197 216.562 232.287 216.599 232.38 216.599
z
" style="fill:#444444;stroke:#000000;"/>
    <path clip-path="url(#pdb9fa31e48)" d="
M231.215 213.685
C231.309 213.685 231.398 213.648 231.465 213.582
C231.531 213.516 231.568 213.426 231.568 213.332
C231.568 213.238 231.531 213.148 231.465 213.082
C231.398 213.016 231.309 212.978 231.215 212.978
C231.121 212.978 231.031 213.016 230.965 213.082
C230.898 213.148 230.861 213.238 230.861 213.332
C230.861 213.426 230.898 213.516 230.965 213.582
C231.031 213.648 231.121 213.685 231.215 213.685
z
" style="fill:#444444;stroke:#000000;"/>
    <path clip-path="url(#pdb9fa31e48)" d="
M104.16 128.594
C104.254 128.594 104.344 128.557 104.41 128.49
C104.477 128.424 104.514 128.334 104.514 128.24
C104.514 128.147 104.477 128.057 104.41 127.99
C104.344 127.924 104.254 127.887 104.16 127.887
C104.067 127.887 103.977 127.924 103.91 127.99
C103.844 128.057 103.807 128.147 103.807 128.24
C103.807 128.334 103.844 128.424 103.91 128.49
C103.977 128.557 104.067 128.594 104.16 128.594
z
" style="fill:#444444;stroke:#000000;"/>
    <path clip-path="url(#pdb9fa31e48)" d="
M251.808 125.291
C251.901 125.291 251.991 125.254 252.058 125.188
C252.124 125.121 252.161 125.031 252.161 124.938
C252.161 124.844 252.124 124.754 252.058 124.688
C251.991 124.621 251.901 124.584 251.808 124.584
C251.714 124.584 251.624 124.621 251.558 124.688
C251.491 124.754 251.454 124.844 251.454 124.938
C251.454 125.031 251.491 125.121 251.558 125.188
C251.624 125.254 251.714 125.291 251.808 125.291
z
" style="fill:#444444;stroke:#000000;"/>
    <path clip-path="url(#pdb9fa31e48)" d="
M363.32 182.796
C363.414 182.796 363.504 182.759 363.57 182.693
C363.637 182.626 363.674 182.536 363.674 182.443
C363.674 182.349 363.637 182.259 363.57 182.193
C363.504 182.126 363.414 182.089 363.32 182.089
C363.227 182.089 363.137 182.126 363.07 182.193
C363.004 182.259 362.967 182.349 362.967 182.443
C362.967 182.536 363.004 182.626 363.07 182.693
C363.137 182.759 363.227 182.796 363.32 182.796
z
" style="fill:#444444;stroke:#000000;"/>
    <path clip-path="url(#pdb9fa31e48)" d="
M372.063 114.606
C372.156 114.606 372.246 114.569 372.313 114.503
C372.379 114.436 372.416 114.347 372.416 114.253
C372.416 114.159 372.379 114.069 372.313 114.003
C372.246 113.936 372.156 113.899 372.063 113.899
C371.969 113.899 371.879 113.936 371.813 114.003
C371.746 114.069 371.709 114.159 371.709 114.253
C371.709 114.347 371.746 114.436 371.813 114.503
C371.879 114.569 371.969 114.606 372.063 114.606
z
" style="fill:#444444;stroke:#000000;"/>
    <path clip-path="url(#pdb9fa31e48)" d="
M364.02 174.574
C364.114 174.574 364.204 174.536 364.27 174.47
C364.336 174.404 364.374 174.314 364.374 174.22
C364.374 174.126 364.336 174.036 364.27 173.97
C364.204 173.904 364.114 173.866 364.02 173.866
C363.926 173.866 363.836 173.904 363.77 173.97
C363.704 174.036 363.667 174.126 363.667 174.22
C363.667 174.314 363.704 174.404 363.77 174.47
C363.836 174.536 363.926 174.574 364.02 174.574
z
" style="fill:#444444;stroke:#000000;"/>
    <path clip-path="url(#pdb9fa31e48)" d="
M316.313 175.154
C316.407 175.154 316.497 175.117 316.563 175.051
C316.63 174.984 316.667 174.895 316.667 174.801
C316.667 174.707 316.63 174.617 316.563 174.551
C316.497 174.484 316.407 174.447 316.313 174.447
C316.22 174.447 316.13 174.484 316.063 174.551
C315.997 174.617 315.96 174.707 315.96 174.801
C315.96 174.895 315.997 174.984 316.063 175.051
C316.13 175.117 316.22 175.154 316.313 175.154
z
" style="fill:#444444;stroke:#000000;"/>
    <path clip-path="url(#pdb9fa31e48)" d="
M310.672 262.448
C310.766 262.448 310.856 262.411 310.922 262.344
C310.989 262.278 311.026 262.188 311.026 262.094
C311.026 262.001 310.989 261.911 310.922 261.844
C310.856 261.778 310.766 261.741 310.672 261.741
C310.579 261.741 310.489 261.778 310.422 261.844
C310.356 261.911 310.319 262.001 310.319 262.094
C310.319 262.188 310.356 262.278 310.422 262.344
C310.489 262.411 310.579 262.448 310.672 262.448
z
" style="fill:#444444;stroke:#000000;"/>
    <path clip-path="url(#pdb9fa31e48)" d="
M332.448 227.685
C332.542 227.685 332.631 227.647 332.698 227.581
C332.764 227.515 332.801 227.425 332.801 227.331
C332.801 227.237 332.764 227.147 332.698 227.081
C332.631 227.015 332.542 226.978 332.448 226.978
C332.354 226.978 332.264 227.015 332.198 227.081
C332.131 227.147 332.094 227.237 332.094 227.331
C332.094 227.425 332.131 227.515 332.198 227.581
C332.264 227.647 332.354 227.685 332.448 227.685
z
" style="fill:#444444;stroke:#000000;"/>
    <path clip-path="url(#pdb9fa31e48)" d="
M286.88 232.325
C286.974 232.325 287.064 232.288 287.13 232.222
C287.196 232.155 287.233 232.065 287.233 231.972
C287.233 231.878 287.196 231.788 287.13 231.722
C287.064 231.655 286.974 231.618 286.88 231.618
C286.786 231.618 286.696 231.655 286.63 231.722
C286.564 231.788 286.526 231.878 286.526 231.972
C286.526 232.065 286.564 232.155 286.63 232.222
C286.696 232.288 286.786 232.325 286.88 232.325
z
" style="fill:#444444;stroke:#000000;"/>
    <path clip-path="url(#pdb9fa31e48)" d="
M292.022 247.489
C292.116 247.489 292.206 247.452 292.272 247.385
C292.338 247.319 292.376 247.229 292.376 247.135
C292.376 247.042 292.338 246.952 292.272 246.885
C292.206 246.819 292.116 246.782 292.022 246.782
C291.928 246.782 291.838 246.819 291.772 246.885
C291.706 246.952 291.669 247.042 291.669 247.135
C291.669 247.229 291.706 247.319 291.772 247.385
C291.838 247.452 291.928 247.489 292.022 247.489
z
" style="fill:#444444;stroke:#000000;"/>
    <path clip-path="url(#pdb9fa31e48)" d="
M212.37 118.103
C212.464 118.103 212.554 118.066 212.62 118
C212.687 117.933 212.724 117.843 212.724 117.75
C212.724 117.656 212.687 117.566 212.62 117.5
C212.554 117.433 212.464 117.396 212.37 117.396
C212.277 117.396 212.187 117.433 212.12 117.5
C212.054 117.566 212.017 117.656 212.017 117.75
C212.017 117.843 212.054 117.933 212.12 118
C212.187 118.066 212.277 118.103 212.37 118.103
z
" style="fill:#444444;stroke:#000000;"/>
    <path clip-path="url(#pdb9fa31e48)" d="
M247.343 172.616
C247.437 172.616 247.527 172.579 247.593 172.513
C247.66 172.446 247.697 172.356 247.697 172.263
C247.697 172.169 247.66 172.079 247.593 172.013
C247.527 171.946 247.437 171.909 247.343 171.909
C247.25 171.909 247.16 171.946 247.093 172.013
C247.027 172.079 246.99 172.169 246.99 172.263
C246.99 172.356 247.027 172.446 247.093 172.513
C247.16 172.579 247.25 172.616 247.343 172.616
z
" style="fill:#444444;stroke:#000000;"/>
    <path clip-path="url(#pdb9fa31e48)" d="
M271.818 189.401
C271.912 189.401 272.001 189.364 272.068 189.298
C272.134 189.231 272.171 189.142 272.171 189.048
C272.171 188.954 272.134 188.864 272.068 188.798
C272.001 188.731 271.912 188.694 271.818 188.694
C271.724 188.694 271.634 188.731 271.568 188.798
C271.501 188.864 271.464 188.954 271.464 189.048
C271.464 189.142 271.501 189.231 271.568 189.298
C271.634 189.364 271.724 189.401 271.818 189.401
z
" style="fill:#444444;stroke:#000000;"/>
    <path clip-path="url(#pdb9fa31e48)" d="
M239.471 153.143
C239.565 153.143 239.655 153.106 239.721 153.04
C239.788 152.974 239.825 152.884 239.825 152.79
C239.825 152.696 239.788 152.606 239.721 152.54
C239.655 152.474 239.565 152.436 239.471 152.436
C239.378 152.436 239.288 152.474 239.221 152.54
C239.155 152.606 239.118 152.696 239.118 152.79
C239.118 152.884 239.155 152.974 239.221 153.04
C239.288 153.106 239.378 153.143 239.471 153.143
z
" style="fill:#444444;stroke:#000000;"/>
    <path clip-path="url(#pdb9fa31e48)" d="
M119.508 127.234
C119.602 127.234 119.692 127.197 119.758 127.13
C119.824 127.064 119.861 126.974 119.861 126.88
C119.861 126.787 119.824 126.697 119.758 126.63
C119.692 126.564 119.602 126.527 119.508 126.527
C119.414 126.527 119.324 126.564 119.258 126.63
C119.192 126.697 119.154 126.787 119.154 126.88
C119.154 126.974 119.192 127.064 119.258 127.13
C119.324 127.197 119.414 127.234 119.508 127.234
z
" style="fill:#444444;stroke:#000000;"/>
    <path clip-path="url(#pdb9fa31e48)" d="
M103.578 289.646
C103.671 289.646 103.761 289.609 103.828 289.543
C103.894 289.476 103.931 289.386 103.931 289.293
C103.931 289.199 103.894 289.109 103.828 289.043
C103.761 288.976 103.671 288.939 103.578 288.939
C103.484 288.939 103.394 288.976 103.328 289.043
C103.261 289.109 103.224 289.199 103.224 289.293
C103.224 289.386 103.261 289.476 103.328 289.543
C103.394 289.609 103.484 289.646 103.578 289.646
z
" style="fill:#444444;stroke:#000000;"/>
    <path clip-path="url(#pdb9fa31e48)" d="
M147.095 118.686
C147.188 118.686 147.278 118.649 147.345 118.582
C147.411 118.516 147.448 118.426 147.448 118.332
C147.448 118.239 147.411 118.149 147.345 118.082
C147.278 118.016 147.188 117.979 147.095 117.979
C147.001 117.979 146.911 118.016 146.845 118.082
C146.778 118.149 146.741 118.239 146.741 118.332
C146.741 118.426 146.778 118.516 146.845 118.582
C146.911 118.649 147.001 118.686 147.095 118.686
z
" style="fill:#444444;stroke:#000000;"/>
    <path clip-path="url(#pdb9fa31e48)" d="
M218.109 219.605
C218.202 219.605 218.292 219.568 218.359 219.502
C218.425 219.436 218.462 219.346 218.462 219.252
C218.462 219.158 218.425 219.068 218.359 219.002
C218.292 218.936 218.202 218.898 218.109 218.898
C218.015 218.898 217.925 218.936 217.859 219.002
C217.792 219.068 217.755 219.158 217.755 219.252
C217.755 219.346 217.792 219.436 217.859 219.502
C217.925 219.568 218.015 219.605 218.109 219.605
z
" style="fill:#444444;stroke:#000000;"/>
    <path clip-path="url(#pdb9fa31e48)" d="
M151.174 277.99
C151.268 277.99 151.358 277.953 151.424 277.886
C151.491 277.82 151.528 277.73 151.528 277.636
C151.528 277.542 151.491 277.453 151.424 277.386
C151.358 277.32 151.268 277.283 151.174 277.283
C151.081 277.283 150.991 277.32 150.924 277.386
C150.858 277.453 150.821 277.542 150.821 277.636
C150.821 277.73 150.858 277.82 150.924 277.886
C150.991 277.953 151.081 277.99 151.174 277.99
z
" style="fill:#444444;stroke:#000000;"/>
    <path clip-path="url(#pdb9fa31e48)" d="
M290.662 234.861
C290.756 234.861 290.846 234.824 290.912 234.758
C290.979 234.691 291.016 234.601 291.016 234.508
C291.016 234.414 290.979 234.324 290.912 234.258
C290.846 234.191 290.756 234.154 290.662 234.154
C290.568 234.154 290.479 234.191 290.412 234.258
C290.346 234.324 290.309 234.414 290.309 234.508
C290.309 234.601 290.346 234.691 290.412 234.758
C290.479 234.824 290.568 234.861 290.662 234.861
z
" style="fill:#444444;stroke:#000000;"/>
    <path clip-path="url(#pdb9fa31e48)" d="
M278.423 203
C278.517 203 278.607 202.963 278.673 202.897
C278.739 202.831 278.777 202.741 278.777 202.647
C278.777 202.553 278.739 202.463 278.673 202.397
C278.607 202.331 278.517 202.293 278.423 202.293
C278.329 202.293 278.239 202.331 278.173 202.397
C278.107 202.463 278.069 202.553 278.069 202.647
C278.069 202.741 278.107 202.831 278.173 202.897
C278.239 202.963 278.329 203 278.423 203
z
" style="fill:#444444;stroke:#000000;"/>
    <path clip-path="url(#pdb9fa31e48)" d="
M222.667 217.959
C222.761 217.959 222.851 217.922 222.917 217.856
C222.983 217.79 223.02 217.7 223.02 217.606
C223.02 217.512 222.983 217.422 222.917 217.356
C222.851 217.29 222.761 217.252 222.667 217.252
C222.573 217.252 222.483 217.29 222.417 217.356
C222.351 217.422 222.313 217.512 222.313 217.606
C222.313 217.7 222.351 217.79 222.417 217.856
C222.483 217.922 222.573 217.959 222.667 217.959
z
" style="fill:#444444;stroke:#000000;"/>
    <path clip-path="url(#pdb9fa31e48)" d="
M109.017 207.663
C109.111 207.663 109.201 207.626 109.267 207.559
C109.333 207.493 109.371 207.403 109.371 207.309
C109.371 207.216 109.333 207.126 109.267 207.059
C109.201 206.993 109.111 206.956 109.017 206.956
C108.923 206.956 108.833 206.993 108.767 207.059
C108.701 207.126 108.664 207.216 108.664 207.309
C108.664 207.403 108.701 207.493 108.767 207.559
C108.833 207.626 108.923 207.663 109.017 207.663
z
" style="fill:#444444;stroke:#000000;"/>
    <path clip-path="url(#pdb9fa31e48)" d="
M170.796 276.63
C170.89 276.63 170.98 276.593 171.046 276.526
C171.112 276.46 171.149 276.37 171.149 276.276
C171.149 276.182 171.112 276.093 171.046 276.026
C170.98 275.96 170.89 275.923 170.796 275.923
C170.702 275.923 170.612 275.96 170.546 276.026
C170.48 276.093 170.442 276.182 170.442 276.276
C170.442 276.37 170.48 276.46 170.546 276.526
C170.612 276.593 170.702 276.63 170.796 276.63
z
" style="fill:#444444;stroke:#000000;"/>
    <path clip-path="url(#pdb9fa31e48)" d="
M284.674 103.287
C284.768 103.287 284.858 103.249 284.924 103.183
C284.99 103.117 285.028 103.027 285.028 102.933
C285.028 102.839 284.99 102.749 284.924 102.683
C284.858 102.617 284.768 102.58 284.674 102.58
C284.58 102.58 284.49 102.617 284.424 102.683
C284.358 102.749 284.32 102.839 284.32 102.933
C284.32 103.027 284.358 103.117 284.424 103.183
C284.49 103.249 284.58 103.287 284.674 103.287
z
" style="fill:#444444;stroke:#000000;"/>
    <path clip-path="url(#pdb9fa31e48)" d="
M194.886 118.103
C194.979 118.103 195.069 118.066 195.136 118
C195.202 117.933 195.239 117.843 195.239 117.75
C195.239 117.656 195.202 117.566 195.136 117.5
C195.069 117.433 194.979 117.396 194.886 117.396
C194.792 117.396 194.702 117.433 194.636 117.5
C194.569 117.566 194.532 117.656 194.532 117.75
C194.532 117.843 194.569 117.933 194.636 118
C194.702 118.066 194.792 118.103 194.886 118.103
z
" style="fill:#444444;stroke:#000000;"/>
    <path clip-path="url(#pdb9fa31e48)" d="
M138.562 215.428
C138.655 215.428 138.745 215.391 138.812 215.324
C138.878 215.258 138.915 215.168 138.915 215.074
C138.915 214.981 138.878 214.891 138.812 214.824
C138.745 214.758 138.655 214.721 138.562 214.721
C138.468 214.721 138.378 214.758 138.312 214.824
C138.245 214.891 138.208 214.981 138.208 215.074
C138.208 215.168 138.245 215.258 138.312 215.324
C138.378 215.391 138.468 215.428 138.562 215.428
z
" style="fill:#444444;stroke:#000000;"/>
    <path clip-path="url(#pdb9fa31e48)" d="
M336.316 260.311
C336.41 260.311 336.5 260.274 336.566 260.207
C336.633 260.141 336.67 260.051 336.67 259.957
C336.67 259.864 336.633 259.774 336.566 259.707
C336.5 259.641 336.41 259.604 336.316 259.604
C336.223 259.604 336.133 259.641 336.066 259.707
C336 259.774 335.963 259.864 335.963 259.957
C335.963 260.051 336 260.141 336.066 260.207
C336.133 260.274 336.223 260.311 336.316 260.311
z
" style="fill:#444444;stroke:#000000;"/>
    <path clip-path="url(#pdb9fa31e48)" d="
M288.137 240.495
C288.231 240.495 288.32 240.458 288.387 240.392
C288.453 240.325 288.49 240.235 288.49 240.142
C288.49 240.048 288.453 239.958 288.387 239.892
C288.32 239.825 288.231 239.788 288.137 239.788
C288.043 239.788 287.953 239.825 287.887 239.892
C287.82 239.958 287.783 240.048 287.783 240.142
C287.783 240.235 287.82 240.325 287.887 240.392
C287.953 240.458 288.043 240.495 288.137 240.495
z
" style="fill:#444444;stroke:#000000;"/>
    <path clip-path="url(#pdb9fa31e48)" d="
M343.504 262.836
C343.598 262.836 343.688 262.799 343.754 262.733
C343.821 262.667 343.858 262.577 343.858 262.483
C343.858 262.389 343.821 262.299 343.754 262.233
C343.688 262.167 343.598 262.129 343.504 262.129
C343.411 262.129 343.321 262.167 343.254 262.233
C343.188 262.299 343.151 262.389 343.151 262.483
C343.151 262.577 343.188 262.667 343.254 262.733
C343.321 262.799 343.411 262.836 343.504 262.836
z
" style="fill:#444444;stroke:#000000;"/>
    <path clip-path="url(#pdb9fa31e48)" d="
M119.119 289.84
C119.213 289.84 119.303 289.803 119.369 289.737
C119.436 289.671 119.473 289.581 119.473 289.487
C119.473 289.393 119.436 289.303 119.369 289.237
C119.303 289.171 119.213 289.133 119.119 289.133
C119.026 289.133 118.936 289.171 118.869 289.237
C118.803 289.303 118.766 289.393 118.766 289.487
C118.766 289.581 118.803 289.671 118.869 289.737
C118.936 289.803 119.026 289.84 119.119 289.84
z
" style="fill:#444444;stroke:#000000;"/>
    <path clip-path="url(#pdb9fa31e48)" d="
M316.16 172.238
C316.254 172.238 316.344 172.201 316.41 172.134
C316.476 172.068 316.513 171.978 316.513 171.884
C316.513 171.791 316.476 171.701 316.41 171.634
C316.344 171.568 316.254 171.531 316.16 171.531
C316.066 171.531 315.976 171.568 315.91 171.634
C315.844 171.701 315.806 171.791 315.806 171.884
C315.806 171.978 315.844 172.068 315.91 172.134
C315.976 172.201 316.066 172.238 316.16 172.238
z
" style="fill:#444444;stroke:#000000;"/>
    <path clip-path="url(#pdb9fa31e48)" d="
M332.602 142.758
C332.696 142.758 332.786 142.721 332.852 142.655
C332.919 142.588 332.956 142.499 332.956 142.405
C332.956 142.311 332.919 142.221 332.852 142.155
C332.786 142.088 332.696 142.051 332.602 142.051
C332.509 142.051 332.419 142.088 332.352 142.155
C332.286 142.221 332.249 142.311 332.249 142.405
C332.249 142.499 332.286 142.588 332.352 142.655
C332.419 142.721 332.509 142.758 332.602 142.758
z
" style="fill:#444444;stroke:#000000;"/>
    <path clip-path="url(#pdb9fa31e48)" d="
M296.879 260.505
C296.973 260.505 297.063 260.468 297.129 260.402
C297.195 260.335 297.233 260.245 297.233 260.152
C297.233 260.058 297.195 259.968 297.129 259.902
C297.063 259.835 296.973 259.798 296.879 259.798
C296.785 259.798 296.695 259.835 296.629 259.902
C296.563 259.968 296.525 260.058 296.525 260.152
C296.525 260.245 296.563 260.335 296.629 260.402
C296.695 260.468 296.785 260.505 296.879 260.505
z
" style="fill:#444444;stroke:#000000;"/>
    <path clip-path="url(#pdb9fa31e48)" d="
M238.826 191.107
C238.92 191.107 239.01 191.07 239.076 191.004
C239.142 190.937 239.179 190.847 239.179 190.754
C239.179 190.66 239.142 190.57 239.076 190.504
C239.01 190.437 238.92 190.4 238.826 190.4
C238.732 190.4 238.642 190.437 238.576 190.504
C238.51 190.57 238.472 190.66 238.472 190.754
C238.472 190.847 238.51 190.937 238.576 191.004
C238.642 191.07 238.732 191.107 238.826 191.107
z
" style="fill:#444444;stroke:#000000;"/>
    <path clip-path="url(#pdb9fa31e48)" d="
M286.626 214.001
C286.72 214.001 286.81 213.964 286.876 213.898
C286.943 213.831 286.98 213.741 286.98 213.648
C286.98 213.554 286.943 213.464 286.876 213.398
C286.81 213.331 286.72 213.294 286.626 213.294
C286.533 213.294 286.443 213.331 286.376 213.398
C286.31 213.464 286.273 213.554 286.273 213.648
C286.273 213.741 286.31 213.831 286.376 213.898
C286.443 213.964 286.533 214.001 286.626 214.001
z
" style="fill:#444444;stroke:#000000;"/>
    <path clip-path="url(#pdb9fa31e48)" d="
M106.88 255.843
C106.974 255.843 107.064 255.805 107.13 255.739
C107.196 255.673 107.234 255.583 107.234 255.489
C107.234 255.395 107.196 255.305 107.13 255.239
C107.064 255.173 106.974 255.136 106.88 255.136
C106.786 255.136 106.696 255.173 106.63 255.239
C106.564 255.305 106.527 255.395 106.527 255.489
C106.527 255.583 106.564 255.673 106.63 255.739
C106.696 255.805 106.786 255.843 106.88 255.843
z
" style="fill:#444444;stroke:#000000;"/>
    <path clip-path="url(#pdb9fa31e48)" d="
M285.805 225.342
C285.899 225.342 285.989 225.305 286.055 225.238
C286.122 225.172 286.159 225.082 286.159 224.988
C286.159 224.894 286.122 224.805 286.055 224.738
C285.989 224.672 285.899 224.635 285.805 224.635
C285.712 224.635 285.622 224.672 285.555 224.738
C285.489 224.805 285.452 224.894 285.452 224.988
C285.452 225.082 285.489 225.172 285.555 225.238
C285.622 225.305 285.712 225.342 285.805 225.342
z
" style="fill:#444444;stroke:#000000;"/>
    <path clip-path="url(#pdb9fa31e48)" d="
M264.871 233.815
C264.965 233.815 265.055 233.778 265.121 233.711
C265.187 233.645 265.224 233.555 265.224 233.461
C265.224 233.367 265.187 233.278 265.121 233.211
C265.055 233.145 264.965 233.108 264.871 233.108
C264.777 233.108 264.687 233.145 264.621 233.211
C264.555 233.278 264.517 233.367 264.517 233.461
C264.517 233.555 264.555 233.645 264.621 233.711
C264.687 233.778 264.777 233.815 264.871 233.815
z
" style="fill:#444444;stroke:#000000;"/>
    <path clip-path="url(#pdb9fa31e48)" d="
M152.56 142.36
C152.654 142.36 152.744 142.323 152.81 142.257
C152.877 142.19 152.914 142.1 152.914 142.007
C152.914 141.913 152.877 141.823 152.81 141.757
C152.744 141.69 152.654 141.653 152.56 141.653
C152.467 141.653 152.377 141.69 152.31 141.757
C152.244 141.823 152.207 141.913 152.207 142.007
C152.207 142.1 152.244 142.19 152.31 142.257
C152.377 142.323 152.467 142.36 152.56 142.36
z
" style="fill:#444444;stroke:#000000;"/>
    <path clip-path="url(#pdb9fa31e48)" d="
M105.132 147.244
C105.225 147.244 105.315 147.207 105.382 147.141
C105.448 147.074 105.485 146.984 105.485 146.891
C105.485 146.797 105.448 146.707 105.382 146.641
C105.315 146.574 105.225 146.537 105.132 146.537
C105.038 146.537 104.948 146.574 104.882 146.641
C104.815 146.707 104.778 146.797 104.778 146.891
C104.778 146.984 104.815 147.074 104.882 147.141
C104.948 147.207 105.038 147.244 105.132 147.244
z
" style="fill:#444444;stroke:#000000;"/>
    <path clip-path="url(#pdb9fa31e48)" d="
M258.115 171.788
C258.209 171.788 258.299 171.75 258.365 171.684
C258.432 171.618 258.469 171.528 258.469 171.434
C258.469 171.34 258.432 171.25 258.365 171.184
C258.299 171.118 258.209 171.081 258.115 171.081
C258.022 171.081 257.932 171.118 257.865 171.184
C257.799 171.25 257.762 171.34 257.762 171.434
C257.762 171.528 257.799 171.618 257.865 171.684
C257.932 171.75 258.022 171.788 258.115 171.788
z
" style="fill:#444444;stroke:#000000;"/>
    <path clip-path="url(#pdb9fa31e48)" d="
M181.481 121.017
C181.575 121.017 181.665 120.98 181.731 120.914
C181.797 120.847 181.835 120.758 181.835 120.664
C181.835 120.57 181.797 120.48 181.731 120.414
C181.665 120.347 181.575 120.31 181.481 120.31
C181.387 120.31 181.297 120.347 181.231 120.414
C181.165 120.48 181.127 120.57 181.127 120.664
C181.127 120.758 181.165 120.847 181.231 120.914
C181.297 120.98 181.387 121.017 181.481 121.017
z
" style="fill:#444444;stroke:#000000;"/>
    <path clip-path="url(#pdb9fa31e48)" d="
M149.772 118.508
C149.865 118.508 149.955 118.47 150.022 118.404
C150.088 118.338 150.125 118.248 150.125 118.154
C150.125 118.06 150.088 117.97 150.022 117.904
C149.955 117.838 149.865 117.8 149.772 117.8
C149.678 117.8 149.588 117.838 149.522 117.904
C149.455 117.97 149.418 118.06 149.418 118.154
C149.418 118.248 149.455 118.338 149.522 118.404
C149.588 118.47 149.678 118.508 149.772 118.508
z
" style="fill:#444444;stroke:#000000;"/>
    <path clip-path="url(#pdb9fa31e48)" d="
M191.583 119.075
C191.677 119.075 191.767 119.037 191.833 118.971
C191.899 118.905 191.937 118.815 191.937 118.721
C191.937 118.627 191.899 118.537 191.833 118.471
C191.767 118.405 191.677 118.368 191.583 118.368
C191.489 118.368 191.399 118.405 191.333 118.471
C191.267 118.537 191.23 118.627 191.23 118.721
C191.23 118.815 191.267 118.905 191.333 118.971
C191.399 119.037 191.489 119.075 191.583 119.075
z
" style="fill:#444444;stroke:#000000;"/>
    <path clip-path="url(#pdb9fa31e48)" d="
M263.075 82.7456
C263.169 82.7456 263.259 82.7083 263.325 82.642
C263.392 82.5757 263.429 82.4858 263.429 82.392
C263.429 82.2983 263.392 82.2083 263.325 82.142
C263.259 82.0757 263.169 82.0385 263.075 82.0385
C262.982 82.0385 262.892 82.0757 262.825 82.142
C262.759 82.2083 262.722 82.2983 262.722 82.392
C262.722 82.4858 262.759 82.5757 262.825 82.642
C262.892 82.7083 262.982 82.7456 263.075 82.7456
z
" style="fill:#444444;stroke:#000000;"/>
    <path clip-path="url(#pdb9fa31e48)" d="
M341.384 173.469
C341.478 173.469 341.568 173.432 341.634 173.365
C341.7 173.299 341.738 173.209 341.738 173.115
C341.738 173.022 341.7 172.932 341.634 172.865
C341.568 172.799 341.478 172.762 341.384 172.762
C341.29 172.762 341.2 172.799 341.134 172.865
C341.068 172.932 341.031 173.022 341.031 173.115
C341.031 173.209 341.068 173.299 341.134 173.365
C341.2 173.432 341.29 173.469 341.384 173.469
z
" style="fill:#444444;stroke:#000000;"/>
    <path clip-path="url(#pdb9fa31e48)" d="
M185.366 120.24
C185.46 120.24 185.55 120.203 185.616 120.137
C185.683 120.07 185.72 119.98 185.72 119.887
C185.72 119.793 185.683 119.703 185.616 119.637
C185.55 119.57 185.46 119.533 185.366 119.533
C185.273 119.533 185.183 119.57 185.116 119.637
C185.05 119.703 185.013 119.793 185.013 119.887
C185.013 119.98 185.05 120.07 185.116 120.137
C185.183 120.203 185.273 120.24 185.366 120.24
z
" style="fill:#444444;stroke:#000000;"/>
    <path clip-path="url(#pdb9fa31e48)" d="
M325.785 108.832
C325.879 108.832 325.969 108.795 326.035 108.729
C326.101 108.662 326.139 108.572 326.139 108.479
C326.139 108.385 326.101 108.295 326.035 108.229
C325.969 108.162 325.879 108.125 325.785 108.125
C325.691 108.125 325.601 108.162 325.535 108.229
C325.469 108.295 325.431 108.385 325.431 108.479
C325.431 108.572 325.469 108.662 325.535 108.729
C325.601 108.795 325.691 108.832 325.785 108.832
z
" style="fill:#444444;stroke:#000000;"/>
    <path clip-path="url(#pdb9fa31e48)" d="
M221.987 258.974
C222.081 258.974 222.171 258.937 222.237 258.87
C222.303 258.804 222.341 258.714 222.341 258.62
C222.341 258.527 222.303 258.437 222.237 258.37
C222.171 258.304 222.081 258.267 221.987 258.267
C221.893 258.267 221.803 258.304 221.737 258.37
C221.671 258.437 221.634 258.527 221.634 258.62
C221.634 258.714 221.671 258.804 221.737 258.87
C221.803 258.937 221.893 258.974 221.987 258.974
z
" style="fill:#444444;stroke:#000000;"/>
    <path clip-path="url(#pdb9fa31e48)" d="
M231.409 123.349
C231.503 123.349 231.593 123.311 231.659 123.245
C231.725 123.179 231.763 123.089 231.763 122.995
C231.763 122.901 231.725 122.811 231.659 122.745
C231.593 122.679 231.503 122.641 231.409 122.641
C231.315 122.641 231.225 122.679 231.159 122.745
C231.093 122.811 231.055 122.901 231.055 122.995
C231.055 123.089 231.093 123.179 231.159 123.245
C231.225 123.311 231.315 123.349 231.409 123.349
z
" style="fill:#444444;stroke:#000000;"/>
    <path clip-path="url(#pdb9fa31e48)" d="
M292.994 59.2386
C293.087 59.2386 293.177 59.2013 293.244 59.135
C293.31 59.0687 293.347 58.9788 293.347 58.885
C293.347 58.7912 293.31 58.7013 293.244 58.635
C293.177 58.5687 293.087 58.5314 292.994 58.5314
C292.9 58.5314 292.81 58.5687 292.744 58.635
C292.677 58.7013 292.64 58.7912 292.64 58.885
C292.64 58.9788 292.677 59.0687 292.744 59.135
C292.81 59.2013 292.9 59.2386 292.994 59.2386
z
" style="fill:#444444;stroke:#000000;"/>
    <path clip-path="url(#pdb9fa31e48)" d="
M204.405 224.953
C204.499 224.953 204.589 224.916 204.655 224.85
C204.721 224.783 204.759 224.693 204.759 224.6
C204.759 224.506 204.721 224.416 204.655 224.35
C204.589 224.283 204.499 224.246 204.405 224.246
C204.311 224.246 204.221 224.283 204.155 224.35
C204.089 224.416 204.052 224.506 204.052 224.6
C204.052 224.693 204.089 224.783 204.155 224.85
C204.221 224.916 204.311 224.953 204.405 224.953
z
" style="fill:#444444;stroke:#000000;"/>
    <path clip-path="url(#pdb9fa31e48)" d="
M208.679 284.012
C208.773 284.012 208.863 283.975 208.929 283.909
C208.995 283.842 209.033 283.752 209.033 283.659
C209.033 283.565 208.995 283.475 208.929 283.409
C208.863 283.342 208.773 283.305 208.679 283.305
C208.585 283.305 208.495 283.342 208.429 283.409
C208.363 283.475 208.326 283.565 208.326 283.659
C208.326 283.752 208.363 283.842 208.429 283.909
C208.495 283.975 208.585 284.012 208.679 284.012
z
" style="fill:#444444;stroke:#000000;"/>
    <path clip-path="url(#pdb9fa31e48)" d="
M246.326 137.667
C246.42 137.667 246.51 137.629 246.576 137.563
C246.643 137.497 246.68 137.407 246.68 137.313
C246.68 137.219 246.643 137.129 246.576 137.063
C246.51 136.997 246.42 136.96 246.326 136.96
C246.233 136.96 246.143 136.997 246.076 137.063
C246.01 137.129 245.973 137.219 245.973 137.313
C245.973 137.407 246.01 137.497 246.076 137.563
C246.143 137.629 246.233 137.667 246.326 137.667
z
" style="fill:#444444;stroke:#000000;"/>
    <path clip-path="url(#pdb9fa31e48)" d="
M182.257 149.039
C182.35 149.039 182.44 149.002 182.507 148.935
C182.573 148.869 182.61 148.779 182.61 148.685
C182.61 148.592 182.573 148.502 182.507 148.435
C182.44 148.369 182.35 148.332 182.257 148.332
C182.163 148.332 182.073 148.369 182.007 148.435
C181.94 148.502 181.903 148.592 181.903 148.685
C181.903 148.779 181.94 148.869 182.007 148.935
C182.073 149.002 182.163 149.039 182.257 149.039
z
" style="fill:#444444;stroke:#000000;"/>
    <path clip-path="url(#pdb9fa31e48)" d="
M205.765 221.651
C205.859 221.651 205.949 221.613 206.015 221.547
C206.081 221.481 206.119 221.391 206.119 221.297
C206.119 221.203 206.081 221.113 206.015 221.047
C205.949 220.981 205.859 220.944 205.765 220.944
C205.671 220.944 205.581 220.981 205.515 221.047
C205.449 221.113 205.412 221.203 205.412 221.297
C205.412 221.391 205.449 221.481 205.515 221.547
C205.581 221.613 205.671 221.651 205.765 221.651
z
" style="fill:#444444;stroke:#000000;"/>
    <path clip-path="url(#pdb9fa31e48)" d="
M276.092 196.978
C276.186 196.978 276.275 196.941 276.342 196.874
C276.408 196.808 276.445 196.718 276.445 196.624
C276.445 196.531 276.408 196.441 276.342 196.374
C276.275 196.308 276.186 196.271 276.092 196.271
C275.998 196.271 275.908 196.308 275.842 196.374
C275.775 196.441 275.738 196.531 275.738 196.624
C275.738 196.718 275.775 196.808 275.842 196.874
C275.908 196.941 275.998 196.978 276.092 196.978
z
" style="fill:#444444;stroke:#000000;"/>
    <path clip-path="url(#pdb9fa31e48)" d="
M246.951 125.874
C247.045 125.874 247.135 125.837 247.201 125.771
C247.267 125.704 247.304 125.614 247.304 125.521
C247.304 125.427 247.267 125.337 247.201 125.271
C247.135 125.204 247.045 125.167 246.951 125.167
C246.857 125.167 246.767 125.204 246.701 125.271
C246.635 125.337 246.597 125.427 246.597 125.521
C246.597 125.614 246.635 125.704 246.701 125.771
C246.767 125.837 246.857 125.874 246.951 125.874
z
" style="fill:#444444;stroke:#000000;"/>
    <path clip-path="url(#pdb9fa31e48)" d="
M163.547 209.268
C163.641 209.268 163.731 209.23 163.797 209.164
C163.863 209.098 163.901 209.008 163.901 208.914
C163.901 208.82 163.863 208.73 163.797 208.664
C163.731 208.598 163.641 208.56 163.547 208.56
C163.453 208.56 163.363 208.598 163.297 208.664
C163.231 208.73 163.194 208.82 163.194 208.914
C163.194 209.008 163.231 209.098 163.297 209.164
C163.363 209.23 163.453 209.268 163.547 209.268
z
" style="fill:#444444;stroke:#000000;"/>
    <path clip-path="url(#pdb9fa31e48)" d="
M312.307 140.65
C312.4 140.65 312.49 140.612 312.557 140.546
C312.623 140.48 312.66 140.39 312.66 140.296
C312.66 140.202 312.623 140.112 312.557 140.046
C312.49 139.98 312.4 139.943 312.307 139.943
C312.213 139.943 312.123 139.98 312.057 140.046
C311.99 140.112 311.953 140.202 311.953 140.296
C311.953 140.39 311.99 140.48 312.057 140.546
C312.123 140.612 312.213 140.65 312.307 140.65
z
" style="fill:#444444;stroke:#000000;"/>
    <path clip-path="url(#pdb9fa31e48)" d="
M190.418 234.473
C190.511 234.473 190.601 234.435 190.668 234.369
C190.734 234.303 190.771 234.213 190.771 234.119
C190.771 234.025 190.734 233.935 190.668 233.869
C190.601 233.803 190.511 233.766 190.418 233.766
C190.324 233.766 190.234 233.803 190.168 233.869
C190.101 233.935 190.064 234.025 190.064 234.119
C190.064 234.213 190.101 234.303 190.168 234.369
C190.234 234.435 190.324 234.473 190.418 234.473
z
" style="fill:#444444;stroke:#000000;"/>
    <path clip-path="url(#pdb9fa31e48)" d="
M290.079 254.094
C290.173 254.094 290.263 254.057 290.329 253.991
C290.396 253.924 290.433 253.834 290.433 253.741
C290.433 253.647 290.396 253.557 290.329 253.491
C290.263 253.424 290.173 253.387 290.079 253.387
C289.986 253.387 289.896 253.424 289.829 253.491
C289.763 253.557 289.726 253.647 289.726 253.741
C289.726 253.834 289.763 253.924 289.829 253.991
C289.896 254.057 289.986 254.094 290.079 254.094
z
" style="fill:#444444;stroke:#000000;"/>
    <path clip-path="url(#pdb9fa31e48)" d="
M207.319 225.536
C207.413 225.536 207.503 225.499 207.569 225.432
C207.635 225.366 207.673 225.276 207.673 225.182
C207.673 225.089 207.635 224.999 207.569 224.932
C207.503 224.866 207.413 224.829 207.319 224.829
C207.225 224.829 207.135 224.866 207.069 224.932
C207.003 224.999 206.966 225.089 206.966 225.182
C206.966 225.276 207.003 225.366 207.069 225.432
C207.135 225.499 207.225 225.536 207.319 225.536
z
" style="fill:#444444;stroke:#000000;"/>
    <path clip-path="url(#pdb9fa31e48)" d="
M137.767 256.373
C137.86 256.373 137.95 256.336 138.017 256.27
C138.083 256.204 138.12 256.114 138.12 256.02
C138.12 255.926 138.083 255.836 138.017 255.77
C137.95 255.704 137.86 255.666 137.767 255.666
C137.673 255.666 137.583 255.704 137.517 255.77
C137.45 255.836 137.413 255.926 137.413 256.02
C137.413 256.114 137.45 256.204 137.517 256.27
C137.583 256.336 137.673 256.373 137.767 256.373
z
" style="fill:#444444;stroke:#000000;"/>
    <path clip-path="url(#pdb9fa31e48)" d="
M332.038 72.6068
C332.132 72.6068 332.222 72.5695 332.288 72.5032
C332.355 72.4369 332.392 72.347 332.392 72.2532
C332.392 72.1595 332.355 72.0695 332.288 72.0032
C332.222 71.9369 332.132 71.8997 332.038 71.8997
C331.945 71.8997 331.855 71.9369 331.788 72.0032
C331.722 72.0695 331.685 72.1595 331.685 72.2532
C331.685 72.347 331.722 72.4369 331.788 72.5032
C331.855 72.5695 331.945 72.6068 332.038 72.6068
z
" style="fill:#444444;stroke:#000000;"/>
    <path clip-path="url(#pdb9fa31e48)" d="
M359.046 265.556
C359.14 265.556 359.23 265.519 359.296 265.453
C359.363 265.386 359.4 265.296 359.4 265.203
C359.4 265.109 359.363 265.019 359.296 264.953
C359.23 264.886 359.14 264.849 359.046 264.849
C358.953 264.849 358.863 264.886 358.796 264.953
C358.73 265.019 358.693 265.109 358.693 265.203
C358.693 265.296 358.73 265.386 358.796 265.453
C358.863 265.519 358.953 265.556 359.046 265.556
z
" style="fill:#444444;stroke:#000000;"/>
    <path clip-path="url(#pdb9fa31e48)" d="
M306.204 60.5984
C306.298 60.5984 306.388 60.5612 306.454 60.4949
C306.52 60.4286 306.558 60.3386 306.558 60.2449
C306.558 60.1511 306.52 60.0612 306.454 59.9949
C306.388 59.9286 306.298 59.8913 306.204 59.8913
C306.11 59.8913 306.02 59.9286 305.954 59.9949
C305.888 60.0612 305.851 60.1511 305.851 60.2449
C305.851 60.3386 305.888 60.4286 305.954 60.4949
C306.02 60.5612 306.11 60.5984 306.204 60.5984
z
" style="fill:#444444;stroke:#000000;"/>
    <path clip-path="url(#pdb9fa31e48)" d="
M152.923 118.297
C153.017 118.297 153.107 118.26 153.173 118.194
C153.239 118.128 153.276 118.038 153.276 117.944
C153.276 117.85 153.239 117.76 153.173 117.694
C153.107 117.628 153.017 117.59 152.923 117.59
C152.829 117.59 152.739 117.628 152.673 117.694
C152.607 117.76 152.569 117.85 152.569 117.944
C152.569 118.038 152.607 118.128 152.673 118.194
C152.739 118.26 152.829 118.297 152.923 118.297
z
" style="fill:#444444;stroke:#000000;"/>
    <path clip-path="url(#pdb9fa31e48)" d="
M161.324 276.491
C161.417 276.491 161.507 276.453 161.574 276.387
C161.64 276.321 161.677 276.231 161.677 276.137
C161.677 276.043 161.64 275.953 161.574 275.887
C161.507 275.821 161.417 275.783 161.324 275.783
C161.23 275.783 161.14 275.821 161.074 275.887
C161.007 275.953 160.97 276.043 160.97 276.137
C160.97 276.231 161.007 276.321 161.074 276.387
C161.14 276.453 161.23 276.491 161.324 276.491
z
" style="fill:#444444;stroke:#000000;"/>
    <path clip-path="url(#pdb9fa31e48)" d="
M285.417 59.4328
C285.511 59.4328 285.601 59.3955 285.667 59.3292
C285.733 59.2629 285.77 59.173 285.77 59.0792
C285.77 58.9855 285.733 58.8955 285.667 58.8292
C285.601 58.7629 285.511 58.7257 285.417 58.7257
C285.323 58.7257 285.233 58.7629 285.167 58.8292
C285.101 58.8955 285.063 58.9855 285.063 59.0792
C285.063 59.173 285.101 59.2629 285.167 59.3292
C285.233 59.3955 285.323 59.4328 285.417 59.4328
z
" style="fill:#444444;stroke:#000000;"/>
    <path clip-path="url(#pdb9fa31e48)" d="
M183.904 204.248
C183.998 204.248 184.088 204.211 184.154 204.145
C184.22 204.078 184.257 203.988 184.257 203.895
C184.257 203.801 184.22 203.711 184.154 203.645
C184.088 203.578 183.998 203.541 183.904 203.541
C183.81 203.541 183.72 203.578 183.654 203.645
C183.588 203.711 183.55 203.801 183.55 203.895
C183.55 203.988 183.588 204.078 183.654 204.145
C183.72 204.211 183.81 204.248 183.904 204.248
z
" style="fill:#444444;stroke:#000000;"/>
    <path clip-path="url(#pdb9fa31e48)" d="
M161.277 119.075
C161.37 119.075 161.46 119.037 161.527 118.971
C161.593 118.905 161.63 118.815 161.63 118.721
C161.63 118.627 161.593 118.537 161.527 118.471
C161.46 118.405 161.37 118.368 161.277 118.368
C161.183 118.368 161.093 118.405 161.027 118.471
C160.96 118.537 160.923 118.627 160.923 118.721
C160.923 118.815 160.96 118.905 161.027 118.971
C161.093 119.037 161.183 119.075 161.277 119.075
z
" style="fill:#444444;stroke:#000000;"/>
    <path clip-path="url(#pdb9fa31e48)" d="
M362.201 197.792
C362.295 197.792 362.385 197.755 362.451 197.689
C362.517 197.623 362.555 197.533 362.555 197.439
C362.555 197.345 362.517 197.255 362.451 197.189
C362.385 197.123 362.295 197.085 362.201 197.085
C362.107 197.085 362.017 197.123 361.951 197.189
C361.885 197.255 361.848 197.345 361.848 197.439
C361.848 197.533 361.885 197.623 361.951 197.689
C362.017 197.755 362.107 197.792 362.201 197.792
z
" style="fill:#444444;stroke:#000000;"/>
    <path clip-path="url(#pdb9fa31e48)" d="
M178.254 140.395
C178.348 140.395 178.438 140.358 178.504 140.292
C178.57 140.225 178.607 140.135 178.607 140.042
C178.607 139.948 178.57 139.858 178.504 139.792
C178.438 139.725 178.348 139.688 178.254 139.688
C178.16 139.688 178.07 139.725 178.004 139.792
C177.938 139.858 177.9 139.948 177.9 140.042
C177.9 140.135 177.938 140.225 178.004 140.292
C178.07 140.358 178.16 140.395 178.254 140.395
z
" style="fill:#444444;stroke:#000000;"/>
    <path clip-path="url(#pdb9fa31e48)" d="
M234.636 195.581
C234.729 195.581 234.819 195.544 234.886 195.478
C234.952 195.412 234.989 195.322 234.989 195.228
C234.989 195.134 234.952 195.044 234.886 194.978
C234.819 194.912 234.729 194.874 234.636 194.874
C234.542 194.874 234.452 194.912 234.386 194.978
C234.319 195.044 234.282 195.134 234.282 195.228
C234.282 195.322 234.319 195.412 234.386 195.478
C234.452 195.544 234.542 195.581 234.636 195.581
z
" style="fill:#444444;stroke:#000000;"/>
    <path clip-path="url(#pdb9fa31e48)" d="
M273.76 201.835
C273.854 201.835 273.944 201.798 274.01 201.731
C274.077 201.665 274.114 201.575 274.114 201.481
C274.114 201.387 274.077 201.298 274.01 201.231
C273.944 201.165 273.854 201.128 273.76 201.128
C273.667 201.128 273.577 201.165 273.51 201.231
C273.444 201.298 273.407 201.387 273.407 201.481
C273.407 201.575 273.444 201.665 273.51 201.731
C273.577 201.798 273.667 201.835 273.76 201.835
z
" style="fill:#444444;stroke:#000000;"/>
    <path clip-path="url(#pdb9fa31e48)" d="
M134.273 122.766
C134.366 122.766 134.456 122.729 134.523 122.662
C134.589 122.596 134.626 122.506 134.626 122.412
C134.626 122.318 134.589 122.229 134.523 122.162
C134.456 122.096 134.366 122.059 134.273 122.059
C134.179 122.059 134.089 122.096 134.023 122.162
C133.956 122.229 133.919 122.318 133.919 122.412
C133.919 122.506 133.956 122.596 134.023 122.662
C134.089 122.729 134.179 122.766 134.273 122.766
z
" style="fill:#444444;stroke:#000000;"/>
    <path clip-path="url(#pdb9fa31e48)" d="
M201.88 284.012
C201.973 284.012 202.063 283.975 202.13 283.909
C202.196 283.842 202.233 283.752 202.233 283.659
C202.233 283.565 202.196 283.475 202.13 283.409
C202.063 283.342 201.973 283.305 201.88 283.305
C201.786 283.305 201.696 283.342 201.63 283.409
C201.563 283.475 201.526 283.565 201.526 283.659
C201.526 283.752 201.563 283.842 201.63 283.909
C201.696 283.975 201.786 284.012 201.88 284.012
z
" style="fill:#444444;stroke:#000000;"/>
    <path clip-path="url(#pdb9fa31e48)" d="
M187.892 232.336
C187.986 232.336 188.076 232.298 188.142 232.232
C188.208 232.166 188.245 232.076 188.245 231.982
C188.245 231.888 188.208 231.798 188.142 231.732
C188.076 231.666 187.986 231.629 187.892 231.629
C187.798 231.629 187.708 231.666 187.642 231.732
C187.576 231.798 187.538 231.888 187.538 231.982
C187.538 232.076 187.576 232.166 187.642 232.232
C187.708 232.298 187.798 232.336 187.892 232.336
z
" style="fill:#444444;stroke:#000000;"/>
    <path clip-path="url(#pdb9fa31e48)" d="
M229.267 208.367
C229.361 208.367 229.451 208.329 229.517 208.263
C229.583 208.197 229.62 208.107 229.62 208.013
C229.62 207.919 229.583 207.829 229.517 207.763
C229.451 207.697 229.361 207.66 229.267 207.66
C229.173 207.66 229.083 207.697 229.017 207.763
C228.951 207.829 228.913 207.919 228.913 208.013
C228.913 208.107 228.951 208.197 229.017 208.263
C229.083 208.329 229.173 208.367 229.267 208.367
z
" style="fill:#444444;stroke:#000000;"/>
    <path clip-path="url(#pdb9fa31e48)" d="
M357.298 265.556
C357.392 265.556 357.482 265.519 357.548 265.453
C357.614 265.386 357.651 265.296 357.651 265.203
C357.651 265.109 357.614 265.019 357.548 264.953
C357.482 264.886 357.392 264.849 357.298 264.849
C357.204 264.849 357.114 264.886 357.048 264.953
C356.982 265.019 356.944 265.109 356.944 265.203
C356.944 265.296 356.982 265.386 357.048 265.453
C357.114 265.519 357.204 265.556 357.298 265.556
z
" style="fill:#444444;stroke:#000000;"/>
    <path clip-path="url(#pdb9fa31e48)" d="
M269.875 59.0443
C269.969 59.0443 270.059 59.0071 270.125 58.9408
C270.191 58.8745 270.229 58.7845 270.229 58.6908
C270.229 58.597 270.191 58.5071 270.125 58.4408
C270.059 58.3745 269.969 58.3372 269.875 58.3372
C269.781 58.3372 269.691 58.3745 269.625 58.4408
C269.559 58.5071 269.522 58.597 269.522 58.6908
C269.522 58.7845 269.559 58.8745 269.625 58.9408
C269.691 59.0071 269.781 59.0443 269.875 59.0443
z
" style="fill:#444444;stroke:#000000;"/>
    <path clip-path="url(#pdb9fa31e48)" d="
M277.063 59.6271
C277.157 59.6271 277.247 59.5899 277.313 59.5236
C277.379 59.4573 277.417 59.3674 277.417 59.2736
C277.417 59.1798 277.379 59.0899 277.313 59.0236
C277.247 58.9573 277.157 58.92 277.063 58.92
C276.969 58.92 276.879 58.9573 276.813 59.0236
C276.747 59.0899 276.71 59.1798 276.71 59.2736
C276.71 59.3674 276.747 59.4573 276.813 59.5236
C276.879 59.5899 276.969 59.6271 277.063 59.6271
z
" style="fill:#444444;stroke:#000000;"/>
    <path clip-path="url(#pdb9fa31e48)" d="
M293.382 255.066
C293.476 255.066 293.566 255.028 293.632 254.962
C293.698 254.896 293.736 254.806 293.736 254.712
C293.736 254.618 293.698 254.528 293.632 254.462
C293.566 254.396 293.476 254.358 293.382 254.358
C293.288 254.358 293.198 254.396 293.132 254.462
C293.066 254.528 293.029 254.618 293.029 254.712
C293.029 254.806 293.066 254.896 293.132 254.962
C293.198 255.028 293.288 255.066 293.382 255.066
z
" style="fill:#444444;stroke:#000000;"/>
    <path clip-path="url(#pdb9fa31e48)" d="
M168.659 120.046
C168.753 120.046 168.843 120.009 168.909 119.942
C168.975 119.876 169.013 119.786 169.013 119.692
C169.013 119.599 168.975 119.509 168.909 119.442
C168.843 119.376 168.753 119.339 168.659 119.339
C168.565 119.339 168.475 119.376 168.409 119.442
C168.343 119.509 168.305 119.599 168.305 119.692
C168.305 119.786 168.343 119.876 168.409 119.942
C168.475 120.009 168.565 120.046 168.659 120.046
z
" style="fill:#444444;stroke:#000000;"/>
    <path clip-path="url(#pdb9fa31e48)" d="
M106.532 259.126
C106.626 259.126 106.716 259.088 106.782 259.022
C106.848 258.956 106.886 258.866 106.886 258.772
C106.886 258.678 106.848 258.588 106.782 258.522
C106.716 258.456 106.626 258.419 106.532 258.419
C106.438 258.419 106.348 258.456 106.282 258.522
C106.216 258.588 106.178 258.678 106.178 258.772
C106.178 258.866 106.216 258.956 106.282 259.022
C106.348 259.088 106.438 259.126 106.532 259.126
z
" style="fill:#444444;stroke:#000000;"/>
   </g>
  </g>
 </g>
 <defs>
  <clipPath id="pdb9fa31e48">
   <rect height="345.6" width="414.72" x="34.4575" y="13.006875"/>
  </clipPath>
 </defs>
</svg>
